<?xml version="1.0" encoding="UTF-8" standalone="no"?>
<!-- Created with Inkscape (http://www.inkscape.org/) -->

<svg
   width="113.00098mm"
   height="33.633049mm"
   viewBox="0 0 113.00098 33.633049"
   version="1.1"
   id="svg1"
   inkscape:version="1.3 (0e150ed6c4, 2023-07-21)"
   sodipodi:docname="def_retract.svg"
   xmlns:inkscape="http://www.inkscape.org/namespaces/inkscape"
   xmlns:sodipodi="http://sodipodi.sourceforge.net/DTD/sodipodi-0.dtd"
   xmlns="http://www.w3.org/2000/svg"
   xmlns:svg="http://www.w3.org/2000/svg">
  <sodipodi:namedview
     id="namedview1"
     pagecolor="#ffffff"
     bordercolor="#000000"
     borderopacity="0.25"
     inkscape:showpageshadow="2"
     inkscape:pageopacity="0.0"
     inkscape:pagecheckerboard="0"
     inkscape:deskcolor="#d1d1d1"
     inkscape:document-units="mm"
     inkscape:zoom="4.5576038"
     inkscape:cx="204.27401"
     inkscape:cy="91.824568"
     inkscape:window-width="2880"
     inkscape:window-height="1514"
     inkscape:window-x="2869"
     inkscape:window-y="-11"
     inkscape:window-maximized="1"
     inkscape:current-layer="layer1" />
  <defs
     id="defs1" />
  <g
     inkscape:label="Layer 1"
     inkscape:groupmode="layer"
     id="layer1"
     transform="translate(-23.283333,-119.59167)">
    <path
       style="fill:#000080;fill-opacity:1;stroke:#000000;stroke-width:0.204343;stroke-opacity:1"
       d="m 30.734624,123.6756 c 0,20.77119 0,20.77119 0,20.77119"
       id="path6-3-4" />
    <path
       style="fill:#000080;fill-opacity:1;stroke:#000000;stroke-width:0.292352;stroke-opacity:1"
       d="m 67.048863,144.03051 c -36.369716,0.28014 -36.369716,0.28014 -36.369716,0.28014"
       id="path6-2-8-1" />
    <path
       style="fill:#23e622;fill-opacity:1;stroke:#ffffff;stroke-width:0.44077;stroke-dasharray:1.76308, 3.52616;stroke-dashoffset:0;stroke-opacity:1"
       d="m 23.283462,130.77022 c 43.844931,0 43.958231,-0.40133 43.958231,-0.40133"
       id="path7-57-8" />
    <path
       style="fill:#23e622;fill-opacity:1;stroke:#ffffff;stroke-width:0.44077;stroke-dasharray:1.76308, 3.52616;stroke-dashoffset:0;stroke-opacity:1"
       d="m 23.816675,137.28867 c 43.844938,0 43.958238,-0.40134 43.958238,-0.40134"
       id="path7-5-1-4" />
    <path
       style="fill:#23e622;fill-opacity:1;stroke:#ffffff;stroke-width:0.366741;stroke-dasharray:1.46697, 2.93392;stroke-dashoffset:0;stroke-opacity:1"
       d="m 37.548077,148.60487 c 0.662767,-28.92961 0.24359,-29.0132 0.24359,-29.0132"
       id="path7-5-2-8-9" />
    <path
       style="fill:#23e622;fill-opacity:1;stroke:#ffffff;stroke-width:0.366741;stroke-dasharray:1.46697, 2.93392;stroke-dashoffset:0;stroke-opacity:1"
       d="m 44.191654,148.61289 c 0.66277,-28.92962 0.24359,-29.01321 0.24359,-29.01321"
       id="path7-5-2-3-6-0" />
    <text
       xml:space="preserve"
       style="font-size:2.93754px;fill:#000000;fill-opacity:1;stroke:#ffffff;stroke-width:0.181677;stroke-dasharray:0.726709, 1.45342;stroke-dashoffset:0;stroke-opacity:1"
       x="28.812962"
       y="125.19527"
       id="text8-5-6"
       transform="scale(0.92657203,1.0792469)"><tspan
         sodipodi:role="line"
         id="tspan8-0-5"
         style="stroke-width:0.181677"
         x="28.812962"
         y="125.19527">A</tspan></text>
    <text
       xml:space="preserve"
       style="font-size:2.93754px;fill:#000000;fill-opacity:1;stroke:#ffffff;stroke-width:0.181677;stroke-dasharray:0.726709, 1.45342;stroke-dashoffset:0;stroke-opacity:1"
       x="42.465027"
       y="140.79137"
       id="text8-1-3-9"
       transform="scale(0.92657203,1.0792469)"><tspan
         sodipodi:role="line"
         id="tspan8-9-5-2"
         style="stroke-width:0.181677"
         x="42.465027"
         y="140.79137">A</tspan></text>
    <path
       style="fill:#000000;fill-opacity:1;stroke:#000000;stroke-width:0.24;stroke-dasharray:none;stroke-dashoffset:0;stroke-opacity:1"
       d="m 24.872035,130.39501 c 0.0058,0.19342 0.01763,0.38676 0.01739,0.58027 -4.98e-4,0.39176 -0.06324,0.7478 -0.04682,1.15137 0.03418,0.83928 0.162531,1.64796 0.132782,2.49343 -0.02952,0.83867 -0.190434,1.69401 -0.284318,2.52915"
       id="path10-9-7" />
    <path
       style="fill:#000000;fill-opacity:1;stroke:#000000;stroke-width:0.24;stroke-dasharray:none;stroke-dashoffset:0;stroke-opacity:1"
       d="m 24.002461,136.07264 c -0.07368,0.11305 0.602493,0.43829 0.656796,0.49259 0.01934,0.0193 -0.01934,0.0627 0,0.0821 0.01934,0.0193 0.06275,-0.0193 0.0821,0 0.01934,0.0193 -0.01934,0.0627 0,0.0821 0.01934,0.0193 0.06275,-0.0193 0.0821,0 0.0557,0.0557 -0.03757,0.25326 0,0.3284 0.101452,0.2029 0.0821,-0.0283 0.0821,0.1642"
       id="path13-45-9" />
    <path
       style="fill:#000000;fill-opacity:1;stroke:#000000;stroke-width:0.24;stroke-dasharray:none;stroke-dashoffset:0;stroke-opacity:1"
       d="m 43.315694,146.12332 c -0.0737,0.11305 0.6025,0.4383 0.6568,0.4926 0.0193,0.0193 -0.0193,0.0628 0,0.0821 0.0193,0.0193 0.0628,-0.0193 0.0821,0 0.0193,0.0193 -0.0193,0.0627 0,0.0821 0.0193,0.0193 0.0627,-0.0193 0.0821,0 0.0557,0.0557 -0.0376,0.25326 0,0.32839 0.10145,0.20291 0.0821,-0.0283 0.0821,0.1642"
       id="path13-0-0-4" />
    <path
       style="fill:#000000;fill-opacity:1;stroke:#000000;stroke-width:0.24;stroke-dasharray:none;stroke-dashoffset:0;stroke-opacity:1"
       d="m 25.89075,136.23684 c -0.24496,0.0851 -1.124937,0.73889 -1.231493,0.73889"
       id="path14-7-0" />
    <path
       style="fill:#000000;fill-opacity:1;stroke:#000000;stroke-width:0.24;stroke-dasharray:none;stroke-dashoffset:0;stroke-opacity:1"
       d="m 44.344144,147.08997 c -0.24496,0.0851 -1.12494,0.7389 -1.2315,0.7389"
       id="path14-1-9-2" />
    <path
       style="fill:#000000;fill-opacity:1;stroke:#000000;stroke-width:0.24;stroke-dasharray:none;stroke-dashoffset:0;stroke-opacity:1"
       d="m 44.159534,147.03087 c -0.19284,0.0161 -0.38528,0.0381 -0.57853,0.0481 -0.39124,0.0203 -0.7501,-0.0235 -1.15224,0.0143 -0.83629,0.0786 -1.63703,0.24964 -2.48289,0.26475 -0.83906,0.015 -1.70172,-0.10039 -2.540667,-0.14988"
       id="path10-5-6-5"
       inkscape:transform-center-x="-0.04261863"
       inkscape:transform-center-y="-1.4877229" />
    <path
       style="fill:#000000;fill-opacity:1;stroke:#000000;stroke-width:0.24;stroke-dasharray:none;stroke-dashoffset:0;stroke-opacity:1"
       d="m 38.279594,146.29923 c -0.11679,-0.0676 -0.405737,0.62488 -0.457087,0.68199 -0.0183,0.0203 -0.0637,-0.016 -0.082,0.004 -0.0183,0.0203 0.0226,0.0616 0.004,0.082 -0.0183,0.0203 -0.0637,-0.016 -0.082,0.004 -0.0183,0.0203 0.0226,0.0616 0.004,0.082 -0.0527,0.0586 -0.2549,-0.0241 -0.32794,0.0174 -0.19724,0.11206 0.0327,0.0805 -0.15962,0.0907"
       id="path13-8-0-7"
       inkscape:transform-center-x="2.8458639"
       inkscape:transform-center-y="-1.7402918" />
    <path
       style="fill:#000000;fill-opacity:1;stroke:#000000;stroke-width:0.24;stroke-dasharray:none;stroke-dashoffset:0;stroke-opacity:1"
       d="m 38.215714,148.19357 c -0.098,-0.2401 -0.797487,-1.08419 -0.803127,-1.1906"
       id="path14-0-3-5"
       inkscape:transform-center-x="2.7614069"
       inkscape:transform-center-y="-0.920356" />
    <circle
       id="path16-9-2"
       style="fill:#800080;stroke:#cd82e2;stroke-width:0.264583"
       cx="30.898823"
       cy="144.28259"
       r="0.0099195214" />
    <circle
       id="path17-6-6"
       style="fill:#800080;stroke:#cd82e2;stroke-width:0.264583"
       cx="37.548885"
       cy="137.22203"
       r="0.0099195214" />
    <path
       style="fill:#ffffff;fill-opacity:0.92446;stroke:#b422d7;stroke-width:0.228854;stroke-dasharray:none;stroke-dashoffset:0;stroke-opacity:1"
       d="m 37.737097,137.13829 c 0.11849,0.48624 -0.12553,0.8421 -0.2302,1.27791 -0.0878,0.36554 0.15499,-0.0831 -0.0767,0.39935 -0.0324,0.0674 -0.12112,0.0924 -0.15347,0.15974 -0.11798,0.2456 -0.22412,0.67097 -0.38368,0.87857 -0.12917,0.16806 -0.43544,0.60738 -0.61388,0.71882 -0.0694,0.0433 -0.15785,0.0422 -0.2302,0.0799 -0.13873,0.0722 -0.33535,0.30172 -0.46041,0.39935 -0.0833,0.065 -0.10933,0.19366 -0.153468,0.2396 -0.01341,0.0139 -0.814703,0.42399 -0.920817,0.47922 -0.04577,0.0238 -0.110906,-0.0295 -0.15347,0 -0.106411,0.0738 -0.216506,0.14548 -0.306939,0.23961 -0.04044,0.0421 -0.03629,0.11765 -0.07673,0.15974 -0.131069,0.13642 -0.313289,0.1087 -0.460407,0.15974 -0.266881,0.0926 -0.501481,0.36852 -0.767349,0.47922 -0.172893,0.072 -0.362142,0.0935 -0.537142,0.15973 -0.287801,0.10893 -0.506524,0.34348 -0.767349,0.47922 -0.04634,0.0241 -0.194732,-0.0369 -0.230203,0 -0.03012,0.0313 -0.059,0.44229 -0.07673,0.47921 -0.01142,0.0238 -0.05865,-0.0188 -0.07673,0 -0.03617,0.0377 0.02287,0.11212 0,0.15974 -0.05909,0.12302 -0.153467,0.13278 -0.153467,0.23961"
       id="path24-0-2" />
    <path
       style="fill:#ffffff;fill-opacity:0.92446;stroke:#b422d7;stroke-width:0.24;stroke-dasharray:none;stroke-dashoffset:0;stroke-opacity:1"
       d="m 44.593734,130.77149 c 0.0727,-0.0969 0.0723,-0.12323 0.17416,-0.17416 0.0717,-0.0359 0.2969,-0.0849 0.37734,-0.0581 0.009,0.003 -0.009,0.0247 0,0.029 0.022,0.011 0.15225,0.007 0.17416,0 0.20306,-0.0677 0.41016,-0.13067 0.60956,-0.20319 0.0662,-0.0241 0.13906,-0.0289 0.20318,-0.058 0.0953,-0.0433 0.17038,-0.12224 0.26125,-0.17416 0.12813,-0.0732 0.28247,-0.11362 0.37734,-0.23222 0.0902,-0.11274 0.0812,-0.2959 0.11611,-0.4354 0.0343,-0.13714 0.15227,-0.69182 0.20318,-0.81274 0.21731,-0.5161 0.13216,-0.0892 0.23221,-0.46443 0.1144,-0.42896 0.18199,-0.8703 0.26124,-1.30619 0.0186,-0.10253 0.076,-0.19408 0.11611,-0.29027 0.059,-0.14163 0.0884,-0.30672 0.17416,-0.4354 0.0344,-0.0516 0.0817,-0.0936 0.11611,-0.14513 0.024,-0.036 0.0325,-0.0812 0.058,-0.11611 0.26429,-0.36039 0.58506,-0.67214 0.899819,-0.9869 0.0796,-0.0796 0.10724,-0.15758 0.20319,-0.23221 0.0445,-0.0346 0.1,-0.0532 0.14513,-0.0871 0.13182,-0.0989 0.23429,-0.23755 0.37735,-0.3193 0.15439,-0.0882 0.29922,-0.093 0.46442,-0.14513 0.76995,-0.27998 0.0321,-0.0298 0.46443,-0.14513 0.31061,-0.0828 0.60771,-0.21842 0.92885,-0.26124 0.16332,-0.0218 0.32894,-0.0199 0.49345,-0.029 0.72045,-0.04 1.42876,-0.058 2.14797,-0.058 0.18383,0 0.36879,-0.0203 0.5515,0 0.0887,0.01 0.17273,0.047 0.26124,0.058 0.14434,0.018 0.29159,0.007 0.4354,0.029 0.1764,0.0267 0.34621,0.0886 0.52248,0.11611 0.13417,0.021 0.2714,0.014 0.40637,0.029 0.2809,0.0312 0.60866,0.12734 0.8708,0.17416 0.15358,0.0274 0.31475,0.014 0.46442,0.058 0.0914,0.0269 0.1715,0.0841 0.26124,0.1161 0.20744,0.0741 0.44989,0.085 0.66762,0.11611"
       id="path27-2-8" />
    <path
       style="fill:#000000;fill-opacity:1;stroke:#000000;stroke-width:0.24;stroke-dasharray:none;stroke-dashoffset:0;stroke-opacity:1"
       d="m 24.945351,130.41098 c -0.07368,0.11305 0.602493,0.43829 0.656796,0.49259 0.01934,0.0193 -0.01934,0.0627 0,0.0821 0.01934,0.0193 0.06275,-0.0193 0.0821,0 0.01934,0.0193 -0.01934,0.0627 0,0.0821 0.01934,0.0193 0.06275,-0.0193 0.0821,0 0.0557,0.0557 -0.03757,0.25326 0,0.3284 0.101452,0.2029 0.0821,-0.0283 0.0821,0.1642"
       id="path13-4-0-4" />
    <path
       style="fill:#000000;fill-opacity:1;stroke:#000000;stroke-width:0.24;stroke-dasharray:none;stroke-dashoffset:0;stroke-opacity:1"
       d="m 30.661512,123.67269 c -0.07368,0.11305 0.602493,0.4383 0.656796,0.4926 0.01934,0.0193 -0.01934,0.0627 0,0.0821 0.01934,0.0193 0.06275,-0.0193 0.0821,0 0.01934,0.0193 -0.01934,0.0628 0,0.0821 0.01934,0.0193 0.06275,-0.0193 0.0821,0 0.0557,0.0557 -0.03757,0.25326 0,0.3284 0.101452,0.2029 0.0821,-0.0283 0.0821,0.1642"
       id="path13-4-7-5-3" />
    <path
       style="fill:#000000;fill-opacity:1;stroke:#000000;stroke-width:0.24;stroke-dasharray:none;stroke-dashoffset:0;stroke-opacity:1"
       d="m 24.85779,130.40835 c -0.214731,0.1454 -0.89639,1.00396 -0.999343,1.03144"
       id="path14-3-6-6"
       inkscape:transform-center-x="0.15196513"
       inkscape:transform-center-y="-0.12439576" />
    <path
       style="fill:#000000;fill-opacity:1;stroke:#000000;stroke-width:0.24;stroke-dasharray:none;stroke-dashoffset:0;stroke-opacity:1"
       d="m 30.686648,123.79185 c -0.24496,0.0851 -1.124937,0.7389 -1.231493,0.7389"
       id="path14-33-8-6" />
    <path
       style="fill:#000000;fill-opacity:1;stroke:#000000;stroke-width:0.24;stroke-dasharray:none;stroke-dashoffset:0;stroke-opacity:1"
       d="m 66.889393,144.17554 c -0.24496,0.0851 -1.12494,0.7389 -1.23149,0.7389"
       id="path14-5-7-0" />
    <path
       style="fill:#000000;fill-opacity:1;stroke:#000000;stroke-width:0.24;stroke-dasharray:none;stroke-dashoffset:0;stroke-opacity:1"
       d="m 65.914183,142.93061 c -0.0737,0.11305 0.60249,0.4383 0.65679,0.4926 0.0193,0.0193 -0.0193,0.0627 0,0.0821 0.0193,0.0193 0.0628,-0.0193 0.0821,0 0.0193,0.0193 -0.0193,0.0627 0,0.0821 0.0193,0.0193 0.0627,-0.0193 0.0821,0 0.0557,0.0557 -0.0376,0.25326 0,0.32839 0.10146,0.20291 0.0821,-0.0283 0.0821,0.1642"
       id="path13-4-6-2-2" />
    <text
       xml:space="preserve"
       style="font-size:2.65126px;fill:#171010;fill-opacity:0.92446;stroke:#230729;stroke-width:0.163972;stroke-dasharray:none;stroke-dashoffset:0;stroke-opacity:1"
       x="67.456184"
       y="145.19868"
       id="text27-7-8"
       transform="scale(0.99476634,1.0052612)"><tspan
         sodipodi:role="line"
         id="tspan27-0-8"
         style="fill:#171010;fill-opacity:0.92446;stroke:#230729;stroke-width:0.163972;stroke-opacity:1"
         x="67.456184"
         y="145.19868">x</tspan></text>
    <text
       xml:space="preserve"
       style="font-size:2.35884px;fill:#171010;fill-opacity:0.92446;stroke:#230729;stroke-width:0.145886;stroke-dasharray:none;stroke-dashoffset:0;stroke-opacity:1"
       x="30.300148"
       y="122.4768"
       id="text28-8-8"
       transform="scale(1.0007325,0.99926803)"><tspan
         sodipodi:role="line"
         id="tspan28-8-9"
         style="stroke-width:0.145886"
         x="30.300148"
         y="122.4768">y</tspan></text>
    <path
       style="fill:#ffffff;fill-opacity:1;stroke:#de2020;stroke-width:0.24;stroke-dasharray:none;stroke-dashoffset:0;stroke-opacity:1"
       d="m 37.984034,137.10467 c 0.19493,-0.37365 0.46936,-0.84061 0.9031,-0.98519 0.0779,-0.026 0.16665,0.0199 0.2463,0 0.0375,-0.009 0.0475,-0.0648 0.0821,-0.0821 0.17472,-0.0874 0.46975,0.0623 0.65679,0 0.34956,-0.11653 0.72135,-0.15543 1.0673,-0.3284 0.22508,-0.11255 0.51668,-0.52873 0.65679,-0.7389 0.0297,-0.0445 -0.006,-0.2947 0,-0.3284 0.0594,-0.35617 0.2012,-0.87419 0.0821,-1.23149 -0.1111,-0.33331 -0.36504,-0.87526 -0.2463,-1.23149 0.10129,-0.30387 0.33048,-0.71223 0.6568,-0.821 0.14266,-0.0476 0.15846,0.003 0.3284,-0.0821 0.10618,-0.0531 0.31028,-0.22124 0.4105,-0.2463 0.22785,-0.057 0.5168,0.074 0.73889,0 0.0734,-0.0245 0.095,-0.12958 0.1642,-0.1642 0.0684,-0.0342 0.27632,0.0521 0.3284,0 0.0193,-0.0193 -0.0245,-0.0699 0,-0.0821 0.0489,-0.0245 0.11227,0.0173 0.1642,0 0.19351,-0.0645 0.10968,-0.1642 0.3284,-0.1642"
       id="path28-6" />
    <path
       style="fill:#000080;fill-opacity:1;stroke:#000000;stroke-width:0.204343;stroke-opacity:1"
       d="m 98.350277,124.86084 c 0,20.77119 0,20.77119 0,20.77119"
       id="path6-3-4-7" />
    <path
       style="fill:#000080;fill-opacity:1;stroke:#000000;stroke-width:0.292352;stroke-opacity:1"
       d="M 134.66452,145.21575 C 98.2948,145.49589 98.2948,145.49589 98.2948,145.49589"
       id="path6-2-8-1-8" />
    <path
       style="fill:#23e622;fill-opacity:1;stroke:#ffffff;stroke-width:0.44077;stroke-dasharray:1.76308, 3.52616;stroke-dashoffset:0;stroke-opacity:1"
       d="m 90.899115,131.95546 c 43.844935,0 43.958235,-0.40133 43.958235,-0.40133"
       id="path7-57-8-1" />
    <path
       style="fill:#23e622;fill-opacity:1;stroke:#ffffff;stroke-width:0.44077;stroke-dasharray:1.76308, 3.52616;stroke-dashoffset:0;stroke-opacity:1"
       d="m 91.432328,138.47391 c 43.844942,0 43.958242,-0.40134 43.958242,-0.40134"
       id="path7-5-1-4-3" />
    <path
       style="fill:#23e622;fill-opacity:1;stroke:#ffffff;stroke-width:0.366741;stroke-dasharray:1.46697, 2.93392;stroke-dashoffset:0;stroke-opacity:1"
       d="m 105.16374,149.79011 c 0.66276,-28.92961 0.24359,-29.0132 0.24359,-29.0132"
       id="path7-5-2-8-9-2" />
    <path
       style="fill:#23e622;fill-opacity:1;stroke:#ffffff;stroke-width:0.366741;stroke-dasharray:1.46697, 2.93392;stroke-dashoffset:0;stroke-opacity:1"
       d="m 111.80731,149.79812 c 0.66277,-28.92961 0.24359,-29.0132 0.24359,-29.0132"
       id="path7-5-2-3-6-0-3" />
    <text
       xml:space="preserve"
       style="font-size:2.93754px;fill:#000000;fill-opacity:1;stroke:#ffffff;stroke-width:0.181677;stroke-dasharray:0.726709, 1.45342;stroke-dashoffset:0;stroke-opacity:1"
       x="101.78694"
       y="126.29347"
       id="text8-5-6-3"
       transform="scale(0.92657203,1.0792469)"><tspan
         sodipodi:role="line"
         id="tspan8-0-5-7"
         style="stroke-width:0.181677"
         x="101.78694"
         y="126.29347">A</tspan></text>
    <text
       xml:space="preserve"
       style="font-size:2.93754px;fill:#000000;fill-opacity:1;stroke:#ffffff;stroke-width:0.181677;stroke-dasharray:0.726709, 1.45342;stroke-dashoffset:0;stroke-opacity:1"
       x="115.43901"
       y="141.88957"
       id="text8-1-3-9-7"
       transform="scale(0.92657203,1.0792469)"><tspan
         sodipodi:role="line"
         id="tspan8-9-5-2-7"
         style="stroke-width:0.181677"
         x="115.43901"
         y="141.88957">A</tspan></text>
    <path
       style="fill:#000000;fill-opacity:1;stroke:#000000;stroke-width:0.24;stroke-dasharray:none;stroke-dashoffset:0;stroke-opacity:1"
       d="m 92.487688,131.58025 c 0.0058,0.19342 0.01763,0.38676 0.01739,0.58027 -4.98e-4,0.39176 -0.06324,0.74779 -0.04682,1.15137 0.03418,0.83928 0.162531,1.64796 0.132782,2.49343 -0.02952,0.83867 -0.190434,1.694 -0.284318,2.52915"
       id="path10-9-7-0" />
    <path
       style="fill:#000000;fill-opacity:1;stroke:#000000;stroke-width:0.24;stroke-dasharray:none;stroke-dashoffset:0;stroke-opacity:1"
       d="m 91.618114,137.25788 c -0.07368,0.11305 0.602493,0.43829 0.656796,0.49259 0.01934,0.0193 -0.01934,0.0627 0,0.0821 0.01934,0.0193 0.06275,-0.0193 0.0821,0 0.01934,0.0193 -0.01934,0.0627 0,0.0821 0.01934,0.0193 0.06275,-0.0193 0.0821,0 0.0557,0.0557 -0.03757,0.25326 0,0.3284 0.101452,0.2029 0.0821,-0.0283 0.0821,0.1642"
       id="path13-45-9-8" />
    <path
       style="fill:#000000;fill-opacity:1;stroke:#000000;stroke-width:0.24;stroke-dasharray:none;stroke-dashoffset:0;stroke-opacity:1"
       d="m 110.93135,147.30856 c -0.0737,0.11305 0.6025,0.43829 0.6568,0.49259 0.0193,0.0193 -0.0193,0.0627 0,0.0821 0.0193,0.0193 0.0628,-0.0193 0.0821,0 0.0193,0.0193 -0.0193,0.0627 0,0.0821 0.0193,0.0193 0.0627,-0.0193 0.0821,0 0.0557,0.0557 -0.0376,0.25327 0,0.3284 0.10145,0.2029 0.0821,-0.0283 0.0821,0.1642"
       id="path13-0-0-4-2" />
    <path
       style="fill:#000000;fill-opacity:1;stroke:#000000;stroke-width:0.24;stroke-dasharray:none;stroke-dashoffset:0;stroke-opacity:1"
       d="m 93.506403,137.42207 c -0.24496,0.0851 -1.124937,0.7389 -1.231493,0.7389"
       id="path14-7-0-1" />
    <path
       style="fill:#000000;fill-opacity:1;stroke:#000000;stroke-width:0.24;stroke-dasharray:none;stroke-dashoffset:0;stroke-opacity:1"
       d="m 111.9598,148.27521 c -0.24496,0.0851 -1.12494,0.73889 -1.2315,0.73889"
       id="path14-1-9-2-8" />
    <path
       style="fill:#000000;fill-opacity:1;stroke:#000000;stroke-width:0.24;stroke-dasharray:none;stroke-dashoffset:0;stroke-opacity:1"
       d="m 111.77519,148.21611 c -0.19284,0.0161 -0.38528,0.0381 -0.57853,0.0481 -0.39124,0.0203 -0.7501,-0.0235 -1.15224,0.0143 -0.83629,0.0786 -1.63703,0.24964 -2.48289,0.26475 -0.83906,0.015 -1.70172,-0.10039 -2.54066,-0.14988"
       id="path10-5-6-5-5"
       inkscape:transform-center-x="-0.04261863"
       inkscape:transform-center-y="-1.4877229" />
    <path
       style="fill:#000000;fill-opacity:1;stroke:#000000;stroke-width:0.24;stroke-dasharray:none;stroke-dashoffset:0;stroke-opacity:1"
       d="m 105.89525,147.48447 c -0.11679,-0.0676 -0.40573,0.62488 -0.45708,0.68198 -0.0183,0.0203 -0.0637,-0.016 -0.082,0.004 -0.0183,0.0203 0.0226,0.0616 0.004,0.082 -0.0183,0.0203 -0.0637,-0.016 -0.082,0.004 -0.0183,0.0203 0.0226,0.0616 0.004,0.082 -0.0527,0.0586 -0.2549,-0.0241 -0.32794,0.0174 -0.19724,0.11207 0.0327,0.0805 -0.15962,0.0907"
       id="path13-8-0-7-1"
       inkscape:transform-center-x="2.8458639"
       inkscape:transform-center-y="-1.7402918" />
    <path
       style="fill:#000000;fill-opacity:1;stroke:#000000;stroke-width:0.24;stroke-dasharray:none;stroke-dashoffset:0;stroke-opacity:1"
       d="m 105.83137,149.37881 c -0.098,-0.2401 -0.79748,-1.08419 -0.80312,-1.1906"
       id="path14-0-3-5-6"
       inkscape:transform-center-x="2.7614069"
       inkscape:transform-center-y="-0.920356" />
    <circle
       id="path16-9-2-0"
       style="fill:#800080;stroke:#cd82e2;stroke-width:0.264583"
       cx="98.514481"
       cy="145.46783"
       r="0.0099195214" />
    <circle
       id="path17-6-6-5"
       style="fill:#800080;stroke:#cd82e2;stroke-width:0.264583"
       cx="105.16454"
       cy="138.40727"
       r="0.0099195214" />
    <path
       style="fill:#000000;fill-opacity:1;stroke:#000000;stroke-width:0.24;stroke-dasharray:none;stroke-dashoffset:0;stroke-opacity:1"
       d="m 92.561004,131.59621 c -0.07368,0.11306 0.602493,0.4383 0.656796,0.4926 0.01934,0.0193 -0.01934,0.0627 0,0.0821 0.01934,0.0193 0.06275,-0.0193 0.0821,0 0.01934,0.0193 -0.01934,0.0627 0,0.0821 0.01934,0.0193 0.06275,-0.0193 0.0821,0 0.0557,0.0557 -0.03757,0.25326 0,0.3284 0.101452,0.2029 0.0821,-0.0283 0.0821,0.1642"
       id="path13-4-0-4-3" />
    <path
       style="fill:#000000;fill-opacity:1;stroke:#000000;stroke-width:0.24;stroke-dasharray:none;stroke-dashoffset:0;stroke-opacity:1"
       d="m 98.277165,124.85793 c -0.07368,0.11305 0.602493,0.4383 0.656796,0.4926 0.01934,0.0193 -0.01934,0.0627 0,0.0821 0.01934,0.0193 0.06275,-0.0193 0.0821,0 0.01934,0.0193 -0.01934,0.0627 0,0.0821 0.01934,0.0193 0.06275,-0.0193 0.0821,0 0.0557,0.0557 -0.03757,0.25326 0,0.3284 0.101452,0.2029 0.0821,-0.0283 0.0821,0.1642"
       id="path13-4-7-5-3-9" />
    <path
       style="fill:#000000;fill-opacity:1;stroke:#000000;stroke-width:0.24;stroke-dasharray:none;stroke-dashoffset:0;stroke-opacity:1"
       d="m 92.473443,131.59359 c -0.214731,0.1454 -0.89639,1.00396 -0.999343,1.03144"
       id="path14-3-6-6-1"
       inkscape:transform-center-x="0.15196513"
       inkscape:transform-center-y="-0.12439576" />
    <path
       style="fill:#000000;fill-opacity:1;stroke:#000000;stroke-width:0.24;stroke-dasharray:none;stroke-dashoffset:0;stroke-opacity:1"
       d="m 98.302301,124.97709 c -0.24496,0.0851 -1.124937,0.7389 -1.231493,0.7389"
       id="path14-33-8-6-8" />
    <path
       style="fill:#000000;fill-opacity:1;stroke:#000000;stroke-width:0.24;stroke-dasharray:none;stroke-dashoffset:0;stroke-opacity:1"
       d="m 134.50505,145.36078 c -0.24496,0.0851 -1.12494,0.73889 -1.23149,0.73889"
       id="path14-5-7-0-0" />
    <path
       style="fill:#000000;fill-opacity:1;stroke:#000000;stroke-width:0.24;stroke-dasharray:none;stroke-dashoffset:0;stroke-opacity:1"
       d="m 133.52984,144.11585 c -0.0737,0.11305 0.60249,0.43829 0.65679,0.4926 0.0193,0.0193 -0.0193,0.0627 0,0.0821 0.0193,0.0193 0.0628,-0.0193 0.0821,0 0.0193,0.0193 -0.0193,0.0627 0,0.0821 0.0193,0.0193 0.0627,-0.0193 0.0821,0 0.0557,0.0557 -0.0376,0.25327 0,0.3284 0.10146,0.2029 0.0821,-0.0283 0.0821,0.1642"
       id="path13-4-6-2-2-9" />
    <text
       xml:space="preserve"
       style="font-size:2.65126px;fill:#171010;fill-opacity:0.92446;stroke:#230729;stroke-width:0.163972;stroke-dasharray:none;stroke-dashoffset:0;stroke-opacity:1"
       x="135.42758"
       y="146.37772"
       id="text27-7-8-3"
       transform="scale(0.99476634,1.0052612)"><tspan
         sodipodi:role="line"
         id="tspan27-0-8-7"
         style="fill:#171010;fill-opacity:0.92446;stroke:#230729;stroke-width:0.163972;stroke-opacity:1"
         x="135.42758"
         y="146.37772">x</tspan></text>
    <text
       xml:space="preserve"
       style="font-size:2.35884px;fill:#171010;fill-opacity:0.92446;stroke:#230729;stroke-width:0.145886;stroke-dasharray:none;stroke-dashoffset:0;stroke-opacity:1"
       x="97.86631"
       y="123.6629"
       id="text28-8-8-0"
       transform="scale(1.0007325,0.99926803)"><tspan
         sodipodi:role="line"
         id="tspan28-8-9-9"
         style="stroke-width:0.145886"
         x="97.86631"
         y="123.6629">y</tspan></text>
    <path
       style="fill:#ffffff;fill-opacity:1;stroke:#de205e;stroke-width:0.24;stroke-dasharray:none;stroke-dashoffset:0;stroke-opacity:1"
       d="M 98.420457,145.51603 119.68425,123.84174"
       id="path29" />
    <path
       style="fill:#ffffff;fill-opacity:1;stroke:#202ede;stroke-width:0.24;stroke-dasharray:none;stroke-dashoffset:0;stroke-opacity:1"
       d="m 74.036884,133.61159 c 0.20583,-0.27195 0.979575,-1.14799 1.313592,-1.2315 0.07965,-0.0199 0.164201,0 0.246298,0 0.0821,-0.0274 0.162343,-0.0611 0.246301,-0.0821 0.09681,-0.0242 0.560747,0.0542 0.574696,0.0821 0.02447,0.049 0,0.10947 0,0.1642 0.02737,0.0547 0.04816,0.11328 0.0821,0.1642 0.182391,0.27359 0.366697,0.50624 0.492596,0.821 0.122069,0.30517 0.252775,1.3514 -0.164197,1.55989 -0.422183,0.21109 -1.078868,-0.70309 -1.149395,-0.9852 -0.03348,-0.1339 -0.02585,-0.44548 0,-0.57469 0.01699,-0.0849 0.03017,-0.17707 0.0821,-0.2463 0.06035,-0.0805 0.208502,-0.0508 0.246298,-0.1642 0.04765,-0.14295 0.0096,-0.21241 0.1642,-0.3284 0.09791,-0.0734 0.218932,-0.10946 0.328398,-0.1642 0.22959,-0.11479 1.151663,-0.40822 1.395693,-0.1642 0.04327,0.0433 0.03118,0.13026 0.0821,0.1642 0.04554,0.0304 0.117266,-0.0282 0.1642,0 0.195633,0.11738 0.372081,0.45594 0.492599,0.6568 0.144955,0.24159 0.353102,0.45192 0.410496,0.73889 0.01945,0.0973 0.02016,0.93408 -0.0821,0.9852 -0.01461,0.007 -0.284829,0.0145 -0.328398,0 -0.157787,-0.0526 -0.190407,-0.1543 -0.328401,-0.2463 -0.072,-0.048 -0.198295,-0.0101 -0.246298,-0.0821 -0.124685,-0.18703 -0.121031,-1.70674 0,-1.88829 0.04055,-0.0608 0.916218,-0.56484 0.985195,-0.57469 0.838234,-0.11975 -0.02032,0.018 0.492598,0.0821 0.162931,0.0204 0.331047,-0.0294 0.492596,0 0.238279,0.0433 1.488035,0.45152 1.641994,0.65679 0.292047,0.3894 0.484293,0.82413 0.738896,1.2315 0.08205,0.13127 0.235511,0.20455 0.328399,0.3284 0.176553,0.0661 0.0195,0.23451 0.0821,0.32839 0.03395,0.0509 0.116417,0.0439 0.164201,0.0821 0.09066,0.0725 0.155633,0.17377 0.246298,0.2463 0.444552,0.35564 0.955005,0.10677 1.395692,-0.0821 0.128781,-0.0552 0.293042,-0.0761 0.410499,-0.1642 0.06192,-0.0464 0.09497,-0.12958 0.164198,-0.1642 0.405804,-0.2029 -0.01797,0.18218 0.2463,-0.0821 0.320718,-0.32071 0.03315,0.0158 0.246298,-0.41049 0.01815,-0.0363 0.05507,0.1642 -0.0821,0.1642 -0.305514,0 -0.621408,0.0118 -0.903094,-0.0821 -0.08647,-0.0288 -0.28089,-0.15128 -0.328399,-0.2463 -0.01225,-0.0245 0.01934,-0.0627 0,-0.0821 -0.01934,-0.0193 -0.106576,-0.0122 -0.0821,0 0.131816,0.0659 0.28167,0.0926 0.410499,0.1642 0.334692,0.18594 0.26693,0.25661 0.574696,0.4105 0.0774,0.0387 0.174294,0.0341 0.246298,0.0821 0.02278,0.0152 -0.01519,0.0593 0,0.0821 0.04294,0.0644 0.0998,0.12126 0.1642,0.1642 0.04554,0.0304 0.218932,0 0.164198,0 -0.259062,0 -0.135999,0.071 -0.246298,0.3284 -0.07096,0.16557 -0.218792,0.38215 -0.246298,0.57469 -0.03918,0.27427 0,0.70015 0,0.0821"
       id="path30" />
  </g>
</svg>
