<?xml version="1.0" encoding="UTF-8" standalone="no"?>
<!-- Created with Inkscape (http://www.inkscape.org/) -->

<svg
   width="210mm"
   height="297mm"
   viewBox="0 0 210 297"
   version="1.1"
   id="svg1"
   inkscape:version="1.3 (0e150ed6c4, 2023-07-21)"
   sodipodi:docname="reeb_eg.svg"
   xmlns:inkscape="http://www.inkscape.org/namespaces/inkscape"
   xmlns:sodipodi="http://sodipodi.sourceforge.net/DTD/sodipodi-0.dtd"
   xmlns:xlink="http://www.w3.org/1999/xlink"
   xmlns="http://www.w3.org/2000/svg"
   xmlns:svg="http://www.w3.org/2000/svg">
  <sodipodi:namedview
     id="namedview1"
     pagecolor="#ffffff"
     bordercolor="#000000"
     borderopacity="0.25"
     inkscape:showpageshadow="2"
     inkscape:pageopacity="0.0"
     inkscape:pagecheckerboard="0"
     inkscape:deskcolor="#d1d1d1"
     inkscape:document-units="mm"
     inkscape:zoom="1.3249068"
     inkscape:cx="440.78571"
     inkscape:cy="625.70437"
     inkscape:window-width="1920"
     inkscape:window-height="974"
     inkscape:window-x="-11"
     inkscape:window-y="-11"
     inkscape:window-maximized="1"
     inkscape:current-layer="layer1" />
  <defs
     id="defs1">
    <linearGradient
       id="linearGradient34"
       inkscape:swatch="gradient">
      <stop
         style="stop-color:#480101;stop-opacity:1;"
         offset="0"
         id="stop34" />
      <stop
         style="stop-color:#d17575;stop-opacity:0;"
         offset="1"
         id="stop35" />
    </linearGradient>
    <linearGradient
       id="linearGradient20"
       inkscape:collect="always">
      <stop
         style="stop-color:#0f3d0c;stop-opacity:1;"
         offset="0"
         id="stop20" />
      <stop
         style="stop-color:#0f3d0c;stop-opacity:0;"
         offset="1"
         id="stop21" />
    </linearGradient>
    <meshgradient
       inkscape:collect="always"
       id="meshgradient8"
       gradientUnits="userSpaceOnUse"
       x="47.264637"
       y="135.00908"
       gradientTransform="translate(-5.3007818,0.45435273)">
      <meshrow
         id="meshrow8">
        <meshpatch
           id="meshpatch8">
          <stop
             path="c 14.6153,0  29.2306,0  43.8459,0"
             style="stop-color:#ffffff;stop-opacity:1"
             id="stop9" />
          <stop
             path="c 0,21.1071  0,42.2142  0,63.3213"
             style="stop-color:#9f0000;stop-opacity:1"
             id="stop10" />
          <stop
             path="c -14.6153,0  -29.2306,0  -43.8459,0"
             style="stop-color:#ffffff;stop-opacity:1"
             id="stop11" />
          <stop
             path="c 0,-21.1071  0,-42.2142  0,-63.3213"
             style="stop-color:#9f0000;stop-opacity:1"
             id="stop12" />
        </meshpatch>
      </meshrow>
    </meshgradient>
    <linearGradient
       inkscape:collect="always"
       xlink:href="#linearGradient20"
       id="linearGradient21"
       x1="27.716973"
       y1="163.11263"
       x2="28.622764"
       y2="163.11263"
       gradientUnits="userSpaceOnUse"
       gradientTransform="matrix(1.2008907,0.02178446,-0.01418335,1.0534913,-4.4057382,-9.5659732)" />
  </defs>
  <g
     inkscape:label="Layer 1"
     inkscape:groupmode="layer"
     id="layer1">
    <path
       style="fill:url(#meshgradient8);fill-opacity:1;stroke:#ffffff;stroke-width:0.3;stroke-linejoin:round"
       d="m 52.099111,188.70783 c -0.3029,-0.35339 -0.605803,-0.70677 -0.908706,-1.06016 -0.3029,-0.25242 -0.641266,-0.46753 -0.908704,-0.75726 -1.037217,-1.38295 -0.551733,-0.85463 -1.363059,-1.66596 -0.228573,-0.22857 -0.555321,-0.35338 -0.757253,-0.6058 -0.09973,-0.12466 -0.07225,-0.31574 -0.151453,-0.45435 -0.370538,-0.64844 -0.951754,-1.20046 -1.363057,-1.81741 -0.660897,-0.99135 -1.337056,-2.01813 -1.968862,-3.02902 -0.69659,-1.11455 -0.910717,-2.42858 -1.363059,-3.63482 -0.342527,-0.91341 -0.618226,-1.78206 -0.908704,-2.72612 -0.340577,-1.10687 -0.236564,-2.20415 -0.302903,-3.33192 -0.158094,-2.6876 -0.306856,-5.23316 0.302903,-7.87544 0.218943,-0.94876 0.166532,-1.92299 0.3029,-2.87757 0.113538,-0.79477 0.825008,-1.41487 1.060157,-2.12032 0.09679,-0.29036 0.04421,-0.65001 0.302903,-0.9087 0.0714,-0.0714 0.212592,0.0452 0.3029,0 0.202848,-0.10142 0.209857,-0.36131 0.302903,-0.45435 0.163967,-0.16397 0.751207,-0.22416 0.908706,-0.30291 0.04515,-0.0226 -0.0357,-0.11575 0,-0.15145 0.0714,-0.0714 0.201933,0 0.3029,0 0.427191,0 1.296813,-0.18457 1.66596,0 0.574794,0.2874 1.60877,1.66194 2.120312,1.96886 0.147865,0.0887 0.604012,0.14966 0.757256,0.30291 0.257416,0.25741 0.348388,0.65129 0.605804,0.9087 0.0357,0.0357 0.100967,0 0.15145,0 0.100967,0.10097 0.239046,0.17519 0.302903,0.3029 0.156575,0.31315 0.122674,1.15406 0.302903,1.51451 0.164092,0.32819 0.528052,0.67141 0.605803,1.06016 0.0297,0.14851 -0.03673,0.30742 0,0.45435 0.01802,0.072 0.284887,0.3823 0.3029,0.45436 0.06911,0.27642 -0.09013,0.6383 0,0.9087 0.08554,0.25662 0.217308,0.39182 0.302903,0.60581 0.397492,0.99373 0.586184,2.08107 1.060156,3.02901 0.155766,0.31153 0.0011,0.91073 0.151451,1.21161 0.09579,0.19157 0.358566,0.26278 0.454353,0.45435 0.155257,0.31052 0.454353,0.8246 0.454353,1.21161 0,0.10097 -0.07139,0.23151 0,0.3029 0.07572,0.0757 0.227176,0.0757 0.3029,0.15145 0.243427,0.24343 0.03322,0.42602 0.302903,0.60581 0.09393,0.0626 0.223081,0.0716 0.302903,0.15145 0.0357,0.0357 -0.02257,0.10629 0,0.15145 0.101423,0.20284 0.361304,0.20985 0.45435,0.3029 0.0357,0.0357 -0.03569,0.11575 0,0.15145 0.0357,0.0357 0.115755,-0.0357 0.151453,0 0.0357,0.0357 -0.0357,0.11575 0,0.15145 0.0357,0.0357 0.115753,-0.0357 0.15145,0 0.0357,0.0357 -0.0357,0.11575 0,0.15145 0.06169,0.0617 0.854051,0.19267 1.060157,0.15145 0.373954,-0.0748 0.721947,-0.23228 0.908706,-0.6058 0.401402,-0.8028 0.3029,-2.23249 0.3029,-3.02902 0,-1.24786 0.103616,-2.54289 0,-3.78627 -0.115189,-1.38227 -0.510614,-2.73266 -0.757253,-4.08918 -0.257003,-1.41351 -0.08028,-2.81717 -0.151451,-4.24062 -0.10396,-2.07919 -0.151452,-4.12597 -0.151452,-6.20949 0,-1.07522 -0.04202,-2.11637 0.151452,-3.18047 0.155221,-0.85372 0.234728,-0.6455 0.605804,-1.66596 0.258228,-0.71012 0.267054,-1.59427 0.605803,-2.27176 0.112884,-0.22577 0.341468,-0.38003 0.454353,-0.6058 0.297902,-0.59581 0.384836,-1.25879 0.757253,-1.81742 0.563473,-0.8452 0.05561,0.34314 0.605804,-0.75725 0.462375,-0.92475 -0.309738,0.0385 0.605805,-1.06016 0.182822,-0.21938 0.434457,-0.37734 0.605804,-0.6058 0.183922,-0.24523 0.07128,-0.29994 0.3029,-0.45435 0.187851,-0.12524 0.417952,-0.17767 0.605803,-0.30291 0.300035,0.0151 0.07163,-0.22307 0.151453,-0.3029 0.286022,-0.28602 0.285885,-0.0715 0.605803,-0.15145 0.438648,-0.10966 0.830736,-0.41536 1.211607,-0.6058 0.09031,-0.0452 0.205819,0.0277 0.302903,0 0.307001,-0.0877 0.597021,-0.23364 0.908703,-0.3029 1.075722,-0.23905 2.721054,0.0954 3.786275,0.15145 0.624382,0.0329 3.791916,-0.24866 4.392075,0.15145 0.565695,0.37713 0.754063,1.05696 1.211607,1.51451 0.07982,0.0798 0.252417,0.0505 0.302903,0.15145 0.06773,0.13546 -0.0297,0.30584 0,0.45435 0.06684,0.3342 0.387514,0.42306 0.454353,0.75726 0.0297,0.14851 -0.03673,0.30742 0,0.45435 0.03463,0.13853 0.249869,0.17033 0.3029,0.3029 0.499327,0.179 0.07005,0.51305 0.151453,0.75726 0.221549,0.66465 0.507306,1.27938 0.605803,1.96886 0.115181,0.80627 -0.228627,2.49459 0,3.18047 0.02257,0.0677 0.134133,0.0822 0.15145,0.15145 0.03673,0.14693 -0.0297,0.30584 0,0.45435 0.02215,0.11069 0.124071,0.19339 0.15145,0.3029 0.179311,0.71724 0.06947,1.53398 0.151453,2.27176 0.07409,0.66678 0.327798,1.3361 0.45435,1.96887 0.20569,1.02843 -0.31942,-0.19551 0.151453,1.06015 0.07927,0.2114 0.225745,0.39363 0.3029,0.60581 0.26783,0.73653 0.324467,1.54028 0.605804,2.27176 0.105672,0.27475 0.369768,0.4753 0.454353,0.75725 0.253045,0.84348 -0.151905,2.11758 0,3.02902 0.134347,0.80609 0.634801,1.51853 0.908706,2.27177 0.1256,0.3454 0.177303,0.71476 0.302903,1.06015 0.344575,0.94758 0.925999,1.852 1.363056,2.72612 0.492866,0.98573 0.712087,2.13625 1.060157,3.18047 0.0814,0.24421 0.03633,0.52701 0.151453,0.75725 0.06386,0.12772 0.230952,0.17957 0.3029,0.3029 0.990322,1.6977 0.557458,1.06658 1.060156,2.57467 0.03081,0.0924 0.272095,0.36193 0.302903,0.45435 0.04543,0.13631 -0.04544,0.31805 0,0.45436 0.429556,1.28866 0.15145,3.29553 0.15145,4.69497 0,1.39831 0.115851,2.85042 0,4.24063 -0.07622,0.91468 -0.290115,1.82281 -0.454353,2.72611 -0.06386,0.35122 -0.04395,0.71976 -0.15145,1.06016 -0.197628,0.62583 -0.530373,1.20159 -0.757256,1.81741 -0.603054,1.63686 0.04428,0.70102 -0.908704,2.72612 -0.255926,0.54384 -1.139986,1.65216 -1.514509,2.12031 -1.088541,1.36068 -2.484847,1.75005 -3.786272,2.72612 -0.285581,0.21418 -0.460235,0.55924 -0.757256,0.75725 -0.3199,0.21327 -0.730475,0.25655 -1.060156,0.45435 -0.183661,0.1102 -0.276141,0.33555 -0.454353,0.45436 -0.95794,0.63862 -3.72323,1.38832 -4.089173,1.51451 -1.354566,0.46709 -3.576746,1.20515 -4.997881,1.36306 -1.560364,0.17337 -4.821142,0.0673 -6.209488,-0.30291 -1.202782,-0.32074 -0.375541,-0.20333 -1.363056,-0.9087 -0.129908,-0.0928 -0.326639,-0.0557 -0.454353,-0.15145 -0.235495,-0.17662 -0.283255,-0.51772 -0.454353,-0.75726 -0.133504,-0.1869 -0.861865,-1.01331 -1.060157,-1.21161 -0.257418,-0.25741 -0.651287,-0.34838 -0.908706,-0.6058 -0.07982,-0.0798 -0.0633,-0.23238 -0.15145,-0.3029 -0.176297,-0.14104 -0.412208,-0.18674 -0.605803,-0.3029 -0.122441,-0.0735 -0.184095,-0.2237 -0.302903,-0.3029 -0.406334,-0.27089 -0.821939,-0.46501 -1.211607,-0.75726 -0.180615,-0.13546 -0.464767,-0.1266 -0.605803,-0.3029 -0.282075,-0.35259 -0.463015,-0.78324 -0.605803,-1.21161 -0.192387,-0.57715 0.336113,-0.0259 -0.151453,-0.75725 -0.028,-0.042 -0.115752,0.0357 -0.15145,0 -0.170548,-0.17055 0.0921,-0.81457 0,-1.06016 -0.134998,-0.35999 -0.302903,-0.70677 -0.454353,-1.06015 z"
       id="path1" />
    <path
       style="fill:#ffffff;fill-opacity:1;stroke:#ffffff;stroke-width:0.449459;stroke-linejoin:round"
       d="m 74.694922,174.39421 c -2.349426,0.30281 -4.723685,0.56568 -7.095885,0.65302 -0.945359,0.0347 -1.917382,-0.19942 -2.838349,0 -3.100818,0.67141 -2.808146,9.00778 -2.128767,10.88341 1.187123,3.27741 5.888803,3.99688 8.988107,4.35338 0.939443,0.1081 2.026128,0.063 2.838351,-0.43532 0.387689,-0.23785 0.144775,-0.2754 0.473072,-0.65301 0.813955,-0.93632 1.899235,-1.78005 2.128765,-3.04735 0.207808,-1.14752 -0.293875,-0.16715 0.236529,-1.30603 0.564277,-1.21167 1.713339,-2.45289 1.182638,-3.91804 -0.319628,-0.88244 -1.675887,-1.56081 -2.128765,-2.39435 -0.07059,-0.12979 0.111515,-0.33274 0,-0.43535 -0.118226,-0.10878 -0.354784,-0.10878 -0.473057,-0.21766 -0.132435,-0.12188 0.05138,-0.94656 0,-1.08835 -0.130875,-0.3613 -0.639617,-1.02394 -0.94611,-1.306"
       id="path12" />
    <path
       style="fill:#ffffff;fill-opacity:1;stroke:#ffffff;stroke-width:0.3;stroke-linejoin:round"
       d="m 125.40135,148.42188 c -0.91192,1.60503 -1.35285,3.44709 -1.06016,5.30078 0.0239,0.1514 0.62563,1.63981 0.75725,1.96886 0.20194,0.50484 0.34175,1.03921 0.60581,1.51451 0.25076,0.45138 0.77934,1.20576 1.21161,1.51451 1.35184,0.96561 5.31664,1.79816 6.96674,1.96887 0.70302,0.0727 1.41354,0 2.12031,0 0.12423,0 2.42576,0.29781 2.72612,-0.30291 0.98501,-1.97003 0.38034,-6.88587 -0.3029,-8.9356 -0.55153,-1.65458 -0.008,-0.16335 -0.60581,-1.06016 -0.94385,-1.41577 -0.56832,-1.43278 -2.12031,-2.72611 -0.38042,-0.31702 -1.75682,-0.15145 -2.12032,-0.15145 -5.45744,0 1.18655,-0.0669 -3.18046,0.15145 -0.55463,0.0277 -1.11679,-0.0824 -1.66596,0 -3.09824,1.03274 -0.23329,0.2374 -1.96887,0.45435 -0.8716,0.10895 -1.71183,0.37517 -2.42321,0.9087 -0.0903,0.0677 -0.0716,0.22309 -0.15145,0.30291 -0.20193,0.20193 -0.15145,-0.25242 -0.15145,0.15145"
       id="path13" />
    <path
       style="fill:#ffffff;fill-opacity:1;stroke:#ffffff;stroke-width:0.669195;stroke-linejoin:round"
       d="m 70.605838,144.12065 c -0.464258,1.0767 -3.010556,-0.74503 -3.71401,0 -0.358087,0.37926 -0.554349,1.70255 -0.928502,1.96672 -0.146815,0.10356 -0.340452,-0.19674 -0.464253,0 -0.223182,0.35454 -0.289972,1.01361 -0.464253,1.47503 -0.786607,2.08272 -0.526562,3.0937 -0.232124,5.90021 0.321619,3.06559 1.089283,8.3154 2.78551,9.34194 0.297591,0.18017 0.623209,-0.10778 0.928502,0 0.17066,0.0604 0.292974,0.43987 0.464249,0.49167 0.794697,0.24057 1.800414,0.14642 2.553384,-0.49167 0.824286,-0.69838 1.861731,-2.31117 2.321257,-3.93343 0.329441,-1.16305 0.03119,-1.60714 0.232128,-2.45842 0.198373,-0.84039 0.31905,-1.3537 0.232125,-2.45841 -0.05244,-0.66656 -0.196897,-1.29511 -0.232125,-1.96674 -0.113389,-2.16144 -0.02343,-3.04932 -0.464253,-4.91683 -0.03459,-0.14674 0.05471,-0.37577 0,-0.49167 -0.05471,-0.1159 -0.177411,0.1159 -0.232124,0 -0.05472,-0.1159 0.05471,-0.37578 0,-0.49168 -0.480276,-1.01732 0.01877,1.55458 -0.464253,-0.49168 -0.03459,-0.14674 0.05471,-0.37578 0,-0.49168 -0.131152,-0.27789 -0.755584,-0.61709 -0.928503,-0.98336 -0.05471,-0.1159 0.05471,-0.37581 0,-0.49167 -0.332803,-0.70494 -0.931239,0.29608 -1.392755,0.49167 z"
       id="path14" />
    <path
       style="fill:url(#linearGradient21);fill-opacity:1;stroke:#000000;stroke-width:0.337475;stroke-linejoin:round;stroke-opacity:1"
       d="m 26.972961,200.06773 0.273501,-74.36456"
       id="path15" />
    <path
       style="fill:#0f3d0c;fill-opacity:1;stroke:#000000;stroke-width:0.373999;stroke-linejoin:round;stroke-dasharray:none;stroke-dashoffset:0;stroke-opacity:1"
       d="m 25.595203,127.97601 c 0.354452,0 0.146187,-0.44908 0.302902,-0.6058 0.07982,-0.0798 0.208972,-0.0888 0.302902,-0.15145 0.21485,-0.14323 0.187015,-0.33847 0.3029,-0.45435 0.0357,-0.0357 0.115753,0.0357 0.151453,0 0.218602,-0.21861 -0.212904,-0.61339 0.757254,-0.75726 0.521562,-0.17978 1.17395,1.59038 1.514509,1.81742 1.12289,0.74859 -0.297828,-0.60073 0.454353,0.15145"
       id="path22" />
    <text
       xml:space="preserve"
       style="font-size:3.88056px;fill:#1a6815;fill-opacity:1;stroke:#8d8d8d;stroke-width:0.373999;stroke-linejoin:round;stroke-dasharray:0.373999, 4.48799;stroke-dashoffset:0;stroke-opacity:1"
       x="116.3143"
       y="197.34053"
       id="text24"><tspan
         sodipodi:role="line"
         id="tspan24"
         style="stroke-width:0.374"
         x="116.3143"
         y="197.34053" /></text>
    <text
       xml:space="preserve"
       style="font-size:3.88056px;fill:#1a6815;fill-opacity:1;stroke:#8d8d8d;stroke-width:0.373999;stroke-linejoin:round;stroke-dasharray:0.373999, 4.48799;stroke-dashoffset:0;stroke-opacity:1"
       x="31.350338"
       y="126.31005"
       id="text25"><tspan
         sodipodi:role="line"
         id="tspan25"
         style="stroke-width:0.374"
         x="31.350338"
         y="126.31005" /></text>
    <text
       xml:space="preserve"
       style="font-size:5.64444px;fill:#1a6815;fill-opacity:1;stroke:#8d8d8d;stroke-width:0.373999;stroke-linejoin:round;stroke-dasharray:0, 4.11399;stroke-dashoffset:0;stroke-opacity:1"
       x="26.352459"
       y="124.6441"
       id="text26"><tspan
         sodipodi:role="line"
         id="tspan26"
         style="font-size:5.64444px;stroke-width:0.374;stroke-dasharray:0, 4.11399;stroke-dashoffset:0"
         x="26.352459"
         y="124.6441">f(x)</tspan></text>
    <path
       style="fill:#1a6815;fill-opacity:1;stroke:#3b57df;stroke-width:0.484705;stroke-linejoin:round;stroke-dasharray:2.90823, 2.90823;stroke-dashoffset:0;stroke-opacity:1"
       d="M 19.840069,185.30018 H 157.20604"
       id="path27" />
    <path
       style="fill:#1a6815;fill-opacity:1;stroke:#3b57df;stroke-width:0.483099;stroke-linejoin:round;stroke-dasharray:2.89859, 2.89859;stroke-dashoffset:0;stroke-opacity:1"
       d="M 19.770758,198.64823 H 156.22803"
       id="path27-8" />
    <path
       style="fill:#1a6815;fill-opacity:1;stroke:#3b57df;stroke-width:0.483634;stroke-linejoin:round;stroke-dasharray:2.9018, 2.9018;stroke-dashoffset:0;stroke-opacity:1"
       d="M 19.847361,168.68554 H 156.60753"
       id="path27-4" />
    <path
       style="fill:#1a6815;fill-opacity:1;stroke:#3b57df;stroke-width:0.487369;stroke-linejoin:round;stroke-dasharray:2.92422, 2.92422;stroke-dashoffset:0;stroke-opacity:1"
       d="M 19.790778,151.60166 H 158.67125"
       id="path27-9" />
    <path
       style="fill:#1a6815;fill-opacity:1;stroke:#3b57df;stroke-width:0.481488;stroke-linejoin:round;stroke-dasharray:2.88893, 2.88893;stroke-dashoffset:0;stroke-opacity:1"
       d="M 19.962352,135.9593 H 155.51091"
       id="path27-89" />
    <text
       xml:space="preserve"
       style="font-size:4.58611px;fill:#1a6815;fill-opacity:1;stroke:#3b57df;stroke-width:0.373999;stroke-linejoin:round;stroke-dasharray:0, 4.11399;stroke-dashoffset:0;stroke-opacity:1"
       x="22.263283"
       y="204.00438"
       id="text27"><tspan
         sodipodi:role="line"
         id="tspan27"
         style="font-size:4.58611px;stroke:#070e2d;stroke-width:0.374;stroke-dasharray:0, 4.11399;stroke-dashoffset:0;stroke-opacity:1"
         x="22.263283"
         y="204.00438" /></text>
    <text
       xml:space="preserve"
       style="font-size:3.52778px;fill:#1a6815;fill-opacity:1;stroke:#070e2d;stroke-width:0.373999;stroke-linejoin:round;stroke-dasharray:0, 4.11398;stroke-dashoffset:0;stroke-opacity:1"
       x="21.808929"
       y="196.88617"
       id="text28"><tspan
         sodipodi:role="line"
         id="tspan28"
         style="font-size:3.52778px;stroke-width:0.374"
         x="21.808929"
         y="196.88617">a0</tspan></text>
    <text
       xml:space="preserve"
       style="font-size:3.52778px;fill:#1a6815;fill-opacity:1;stroke:#070e2d;stroke-width:0.373999;stroke-linejoin:round;stroke-dasharray:0, 4.11398;stroke-dashoffset:0;stroke-opacity:1"
       x="21.988359"
       y="183.09245"
       id="text28-2"><tspan
         sodipodi:role="line"
         id="tspan28-8"
         style="font-size:3.52778px;stroke-width:0.374"
         x="21.988359"
         y="183.09245">a1</tspan></text>
    <text
       xml:space="preserve"
       style="font-size:3.52777px;fill:#1a6815;fill-opacity:1;stroke:#070e2d;stroke-width:0.373999;stroke-linejoin:round;stroke-dasharray:0, 4.11398;stroke-dashoffset:0;stroke-opacity:1"
       x="21.960381"
       y="167.05035"
       id="text29"><tspan
         sodipodi:role="line"
         id="tspan29"
         style="stroke-width:0.374"
         x="21.960381"
         y="167.05035">a2</tspan></text>
    <text
       xml:space="preserve"
       style="font-size:3.52777px;fill:#1a6815;fill-opacity:1;stroke:#070e2d;stroke-width:0.373999;stroke-linejoin:round;stroke-dasharray:0, 4.11398;stroke-dashoffset:0;stroke-opacity:1"
       x="22.20833"
       y="150.14951"
       id="text30"><tspan
         sodipodi:role="line"
         id="tspan30"
         style="stroke-width:0.374"
         x="22.20833"
         y="150.14951">a3</tspan></text>
    <text
       xml:space="preserve"
       style="font-size:3.52777px;fill:#1a6815;fill-opacity:1;stroke:#070e2d;stroke-width:0.373999;stroke-linejoin:round;stroke-dasharray:0, 4.11398;stroke-dashoffset:0;stroke-opacity:1"
       x="22.414736"
       y="134.79131"
       id="text31"><tspan
         sodipodi:role="line"
         id="tspan31"
         style="stroke-width:0.374"
         x="22.414736"
         y="134.79131">a4</tspan></text>
    <text
       xml:space="preserve"
       style="font-size:3.52778px;fill:#1a6815;fill-opacity:1;stroke:#070e2d;stroke-width:0.373999;stroke-linejoin:round;stroke-dasharray:0, 4.11398;stroke-dashoffset:0;stroke-opacity:1"
       x="28.472769"
       y="203.09567"
       id="text32"><tspan
         sodipodi:role="line"
         id="tspan32"
         style="font-size:3.52778px;stroke-width:0.374"
         x="28.472769"
         y="203.09567">baseline</tspan></text>
    <path
       style="fill:#1a6815;fill-opacity:1;stroke:#070e2d;stroke-width:0.350518;stroke-linejoin:round;stroke-dasharray:0, 3.85568;stroke-dashoffset:0;stroke-opacity:1"
       d="M 129.78889,198.04421 Z"
       id="path32" />
    <path
       style="fill:none;fill-opacity:1;stroke:#282f50;stroke-width:0.255695;stroke-linejoin:round;stroke-dasharray:none;stroke-dashoffset:0;stroke-opacity:1"
       d="m 128.75152,192.71457 c -1.68248,-0.14343 -0.36414,0.036 -2.13151,-0.42754 -0.16084,-0.0422 -0.3474,-0.033 -0.50154,-0.0855 -0.10573,-0.0361 -0.1494,-0.12953 -0.25076,-0.17101 -0.54092,-0.22134 -0.18993,-0.011 -0.62691,-0.0855 -0.14242,-0.0243 -0.38166,-0.13014 -0.50154,-0.17102 -0.16082,-0.0548 -0.33459,-0.21857 -0.50153,-0.25652 -0.86075,-0.19567 0.58402,0.3274 -0.62691,-0.0855 -0.13487,-0.046 -0.56772,-0.26128 -0.62692,-0.34203 -0.0187,-0.0255 0.0296,-0.0654 0,-0.0855 -0.0231,-0.0157 -0.35305,-0.0697 -0.37615,-0.0855 -0.0662,-0.0452 -0.30991,-0.38237 -0.37614,-0.42754 -0.0446,-0.0304 -0.37175,-0.0825 -0.37616,-0.0855 -0.0591,-0.0403 0.0591,-0.1307 0,-0.17102 -0.0296,-0.0202 -0.0958,0.0202 -0.12538,0 -0.0821,-0.056 -0.078,-0.1976 -0.25077,-0.25652 -0.17294,-0.059 -0.11215,0.10355 -0.25076,-0.0855 -0.0187,-0.0255 0.0296,-0.0653 0,-0.0855 -0.0296,-0.0202 -0.0958,0.0202 -0.12538,0 -0.0296,-0.0202 0.0187,-0.06 0,-0.0855 -0.096,-0.13096 -0.22344,-0.0669 -0.37616,-0.17102 -0.0296,-0.0202 0.0374,-0.0728 0,-0.0855 -0.0748,-0.0255 -0.17146,0.018 -0.25076,0 -0.31715,-0.0721 -0.36151,-0.42255 -0.62691,-0.51305 -0.17813,-0.0607 -0.72948,-0.3109 -0.87769,-0.51305 -0.0187,-0.0255 0,-0.057 0,-0.0855 -0.0418,-0.057 -0.0735,-0.11799 -0.12538,-0.17102 -0.13345,-0.13651 -0.34797,-0.1518 -0.50153,-0.25652 -0.11024,-0.0752 -0.66709,-0.73885 -0.7523,-0.85508 -0.3215,-0.43851 -0.12538,-1.61056 -0.12538,-2.13771"
       id="path33" />
    <path
       style="fill:none;fill-opacity:1;stroke:#282f50;stroke-width:0.316451;stroke-linejoin:round;stroke-dasharray:none;stroke-dashoffset:0;stroke-opacity:1"
       d="m 127.76812,193.00609 c 0.15887,-0.0147 1.03825,-0.0719 1.26523,-0.15576 0.0498,-0.0183 -0.0498,-0.0595 0,-0.0779 0.82299,-0.30391 0.11314,0.018 0.63261,-0.0779 0.25303,-0.0468 0.37957,-0.1869 0.6326,-0.23362 0.23664,-0.0438 0.59924,-0.0327 0.84349,-0.0778 0.87762,-0.16206 -0.22541,0.005 0.21088,-0.15575 0.0498,-0.0183 0.15238,0.0144 0.21088,0 0.16541,-0.0407 0.24391,-0.12293 0.42173,-0.15576 1.06813,-0.19723 2.72345,-0.0647 3.37393,-0.54512 0.16824,-0.12426 0.0961,-0.58059 0.21088,-0.623 0.0498,-0.0183 0.16117,0.0183 0.21087,0 0.14911,-0.0551 -0.0666,-0.15974 0,-0.23363 0.0315,-0.0349 0.17944,-0.043 0.21088,-0.0779 0.0444,-0.0493 -0.0275,-0.10485 0,-0.15575 0.14381,-0.26555 0.48918,-0.5139 0.63262,-0.77874 0.0412,-0.0764 -0.0666,-0.15976 0,-0.23364 0.31513,-0.34914 0.73815,-0.66205 1.05435,-1.01237 0.13914,-0.1542 0.78149,-1.2231 0.84347,-1.246 0.0498,-0.0183 0.16117,0.0183 0.2109,0 0.13366,-0.0494 -0.0879,-0.24667 0,-0.3115 0.20892,-0.15433 0.051,-0.13458 0.21085,-0.3115 0.0315,-0.0349 0.18676,-0.0422 0.21088,-0.0779 0.14892,-0.22001 0,-0.5472 0,-0.77875 0,-0.0491 0,-0.68211 0,-0.46726"
       id="path39" />
    <path
       style="fill:none;fill-opacity:1;stroke:#282f50;stroke-width:0.394516;stroke-linejoin:round;stroke-dasharray:none;stroke-dashoffset:0;stroke-opacity:1"
       d="m 117.23308,186.7305 c 0.83861,-0.61069 0.2395,-0.60991 0.44452,-1.20574 0.082,-0.23841 0.2265,-0.4454 0.29635,-0.689 0.0313,-0.10898 -0.0442,-0.24179 0,-0.3445 0.0221,-0.0514 0.10399,0.0257 0.14817,0 0.0803,-0.0466 0.41664,-0.41946 0.44454,-0.51674 0.0313,-0.10898 -0.0442,-0.24178 0,-0.34449 0.007,-0.0153 0.37838,-0.19072 0.44452,-0.3445 0.0442,-0.10274 -0.0699,-0.26331 0,-0.34449 0.30659,-0.35639 -0.0119,0.54461 0.29635,-0.17227 0.10759,-0.25014 0.29935,-1.03695 0.44452,-1.20572 0.0349,-0.0406 0.11327,0.0406 0.14818,0 0.12593,-0.14638 0.21672,-0.33158 0.29637,-0.51675 0.15126,-0.3517 0.1636,-0.7249 0.29634,-1.03349 0.0625,-0.14524 0.23387,-0.19925 0.29635,-0.34449 0.0221,-0.0514 -0.0349,-0.13165 0,-0.17226 0.0349,-0.0406 0.11325,0.0406 0.14818,0 0.0212,-0.0247 0.42767,-0.80242 0.44452,-0.86124 0.0156,-0.0545 -0.0442,-0.14656 0,-0.17224 0.28272,-0.16432 0.28554,0.19739 0.44455,-0.17225 0.0833,-0.19356 0.25791,-0.75277 0.44451,-0.86124 0.0883,-0.0514 0.20799,0.0514 0.29636,0 0.32378,-0.18821 0.23669,-0.30983 0.59271,-0.51676 0.18214,-0.10591 0.41055,-0.0664 0.59269,-0.17224 0.0442,-0.0257 -0.0349,-0.13164 0,-0.17224 0.0438,-0.0509 0.68108,-0.2236 0.88905,-0.3445 0.23645,-0.13744 2.39958,-0.0334 2.51899,-0.17225 0.0349,-0.0406 -0.0479,-0.15833 0,-0.17224 0.28751,-0.0837 0.60793,0.10898 0.88905,0 0.0662,-0.0257 0.0857,-0.13594 0.14818,-0.17226 0.21038,-0.12227 1.91344,-0.11981 2.22265,0 0.37749,0.14628 0.76029,0.56546 1.18541,0.689 0.3272,0.0951 0.57172,0.0802 0.88904,0.17225 0.38402,0.1116 0.66935,0.51793 1.03724,0.689 0.79507,0.3697 1.80696,0.65393 2.51898,1.20573 0.0495,0.0574 0.0988,0.11483 0.14818,0.17224 0,0.0574 -0.0349,0.13166 0,0.17227 0.0349,0.0406 0.0988,0 0.14818,0 0.0494,0.0574 0.10942,0.10466 0.14817,0.17223 0.34709,0.60519 0.46223,1.41913 0.74088,2.06698 0.0988,0.17225 0.19758,0.34451 0.29635,0.51675 0.0494,0 0.11327,-0.0406 0.14818,0 0.0728,0.0847 0.11501,0.65044 0.14817,0.68898 0.0699,0.0813 0.2265,-0.0812 0.29637,0 0.18807,0.21865 0.10826,0.64261 0.29634,0.86125 0.0349,0.0406 0.11325,-0.0406 0.14818,0 0.0895,0.1041 0,0.87015 0,1.03349 0,0.27215 0.11211,0.86124 -0.14818,0.86124"
       id="path40" />
    <path
       style="fill:none;fill-opacity:1;stroke:#282f50;stroke-width:0.411885;stroke-linejoin:round;stroke-dasharray:none;stroke-dashoffset:0;stroke-opacity:1"
       d="m 127.62358,175.591 c -0.0517,-0.28779 -0.60263,-3.94014 -0.71042,-3.89944 -0.0467,0.0176 -0.002,0.15247 0.0405,0.18317 0.0426,0.0307 0.0976,-0.0836 0.14018,-0.0529 0.0852,0.0614 -0.0124,0.40161 0.081,0.36632 0.0467,-0.0176 -0.027,-0.12211 -0.0405,-0.18316 -0.0167,-0.0754 -0.0737,-0.51503 -0.12152,-0.5495 -0.0426,-0.0307 -0.0923,0.0645 -0.14017,0.0529 -0.44148,-0.10637 -0.26563,-0.29662 -0.78192,-0.10171 -1.08561,0.0947 -1.96445,-0.48016 -2.92825,-0.879 -0.0463,-0.0191 -0.0976,0.0836 -0.14017,0.0529 -0.70515,-0.50829 0.0108,-0.11053 -0.26169,-0.49657 -0.0933,-0.13213 -0.26811,-0.12834 -0.36137,-0.26047 -0.0331,-0.0467 0.002,-0.15248 -0.0405,-0.18319 -0.0426,-0.0307 -0.0976,0.0836 -0.14018,0.0529 -0.0426,-0.0307 0.002,-0.15247 -0.0405,-0.18317 -0.0426,-0.0307 -0.0976,0.0836 -0.14018,0.0529 -0.0235,-0.0169 -0.75193,-1.61979 -1.00627,-1.80312 -0.0952,-0.0686 -0.22562,-0.009 -0.32086,-0.0773 -0.0852,-0.0614 -0.007,-0.28431 -0.081,-0.36634 -0.0679,-0.89507 -0.34799,-0.0968 -0.50155,-0.20755 -0.0426,-0.0307 -0.008,-0.13646 -0.0405,-0.18317 -0.16129,-0.22854 -0.28904,-0.20835 -0.36137,-0.26048 -0.0852,-0.0614 -0.015,-0.27291 -0.081,-0.36635 -0.25019,-0.35449 -0.32063,-0.60839 -0.52339,-0.99314 -0.21893,-0.41544 -0.64584,-0.80028 -0.88475,-1.25363 -0.13753,-0.26094 -0.89959,-1.8802 -1.04676,-1.98629 -0.0426,-0.0307 -0.0976,0.0836 -0.14018,0.0529 -0.14764,-0.10637 -0.23557,-0.93965 -0.38321,-1.04606 -0.0426,-0.0307 -0.0976,0.0836 -0.14018,0.0529 -0.20257,-0.14602 -0.12043,-1.0511 -0.28353,-1.28218 -0.23242,-0.32931 -0.1951,-0.52804 -0.3022,-0.67974 -0.0466,-0.0661 -0.14167,-0.0562 -0.18068,-0.13025 -0.34287,-0.6506 -0.14912,-2.10909 -0.70725,-2.51141"
       id="path41" />
    <path
       style="fill:none;fill-opacity:1;stroke:#282f50;stroke-width:0.399244;stroke-linejoin:round;stroke-dasharray:none;stroke-dashoffset:0;stroke-opacity:1"
       d="m 130.38893,164.62614 c -0.22203,0.56603 0.24067,1.52869 0,2.08416 -0.0316,0.0733 -0.12805,0.096 -0.1505,0.17369 -0.0482,0.16679 0.0722,0.52803 0,0.69472 -0.0876,0.20232 -0.21333,0.31873 -0.30098,0.52104 -0.0224,0.0518 0.0355,0.13274 0,0.17368 -0.25622,0.29568 -0.52335,0.29806 -0.7525,0.69472 -0.0519,0.09 -0.0898,0.45102 -0.15049,0.52105 -0.0709,0.0819 -0.23005,-0.0819 -0.301,0 -0.0753,0.0868 -0.0753,0.26051 -0.1505,0.34736 -0.0355,0.0409 -0.11502,-0.0409 -0.1505,0 -0.10387,0.11987 0.085,0.54759 0,0.69472 -0.0787,0.13624 -0.22229,0.21112 -0.30099,0.34735 -0.0278,0.0482 0,0.11579 0,0.17368 -0.0501,0.11579 -0.0882,0.23965 -0.15049,0.34737 -0.11069,0.19159 -0.36261,0.31585 -0.45151,0.52104 -0.0646,0.14918 -0.0409,0.26814 -0.15049,0.52104 -0.20432,0.47158 -0.085,-0.0757 -0.301,0.17367 -0.0355,0.0409 0,0.23158 0,0.17368 0,-0.34735 0,-0.69472 0,-1.04207"
       id="path42" />
    <path
       style="fill:none;fill-opacity:1;stroke:#282f50;stroke-width:0.379018;stroke-linejoin:round;stroke-dasharray:none;stroke-dashoffset:0;stroke-opacity:1"
       d="m 130.24754,164.47321 c -10e-5,-0.16639 -0.21391,-0.68664 -0.30279,-0.77799 -0.0357,-0.0367 -0.11572,0.0367 -0.1514,0 -0.0357,-0.0367 0.0357,-0.11893 0,-0.15559 -0.31325,-0.32194 0.0122,0.49196 -0.30279,-0.1556 -0.0226,-0.0464 0.0357,-0.11893 0,-0.15561 -0.19431,-0.19969 -0.71408,-0.11149 -0.90839,-0.31119 -0.0357,-0.0367 0.0357,-0.11892 0,-0.15559 -0.0757,-0.0778 -0.3785,0.0778 -0.45419,0 -0.0357,-0.0367 0.0357,-0.11892 0,-0.1556 -0.0757,-0.0778 -0.2271,-0.0778 -0.3028,-0.1556 -0.0714,-0.0733 0.0452,-0.21841 0,-0.31119 -0.35878,-0.73745 -1.58995,-1.40094 -1.96818,-2.17836 -0.13683,-0.28126 0.0857,-0.45318 -0.1514,-0.77799 -0.21195,-0.29045 -0.54503,-0.48753 -0.75698,-0.77798 -0.0769,-0.10531 -0.0667,-0.5353 -0.1514,-0.62239 -0.0357,-0.0367 -0.11571,0.0367 -0.15139,0 -0.0714,-0.0734 0.0714,-0.23785 0,-0.3112 -0.0357,-0.0367 -0.12341,0.0431 -0.1514,0 -0.20725,-0.31948 -0.15141,-0.72989 -0.15141,-1.08917 0,-0.25424 -0.19527,-0.557 -0.30279,-0.77799 -0.0452,-0.0928 0.0714,-0.23785 0,-0.31119 -0.0357,-0.0367 -0.11571,0.0367 -0.1514,0 -0.15222,-0.15644 0.0721,-0.86695 0,-1.08919 -0.29128,-0.89809 -0.56283,-1.75732 -0.90838,-2.64515 -0.0735,-0.18868 0,-0.57212 0,-0.77799 0,-1.12029 0.17328,-2.44457 -0.3028,-3.42313 -0.0606,-0.12448 0.0606,-0.34232 0,-0.46679 -0.37211,-0.76485 -0.3028,-2.36102 -0.3028,-3.26755 0,-0.33776 -0.13773,-1.11725 0,-1.40037 0.17299,-0.35557 0.31747,-0.82322 0.4542,-1.24477 0.0846,-0.26082 0.0128,-0.33756 0.1514,-0.6224 0.0767,-0.15763 0.0897,-1.33695 0.1514,-1.40037 0.008,-0.008 0.44598,-0.30276 0.45419,-0.3112 0.0714,-0.0734 -0.0451,-0.21841 0,-0.31119 0.16738,-0.34404 0.094,-0.0483 0.30279,-0.15559 0.63009,-0.32378 -0.16184,0.0108 0.1514,-0.3112 0.0279,-0.0287 0.4263,-0.12693 0.4542,-0.15559 0.0357,-0.0367 -0.0357,-0.11893 0,-0.1556 0.0357,-0.0367 0.10625,0.0232 0.1514,0 0.12766,-0.0657 0.17511,-0.24559 0.30279,-0.3112 0.18039,-0.0927 0.62027,-0.17068 0.75698,-0.31119 0.0357,-0.0367 -0.0357,-0.11892 0,-0.1556 0.0157,-0.0161 0.96736,-0.2162 1.05979,-0.31119 0.0357,-0.0367 -0.0357,-0.11893 0,-0.1556 0.10706,-0.11002 0.89162,0 1.05979,0 0.59526,0 1.39843,-0.14639 1.96817,0 0.0933,0.0239 0.86702,0.42427 0.90839,0.46679 0.31325,0.32194 -0.47869,-0.0125 0.1514,0.31119 0.0903,0.0464 0.23142,-0.0734 0.3028,0 0.0357,0.0367 -0.0357,0.11893 0,0.1556 0.207,0.21276 0.76695,0.32143 0.90838,0.4668 0.31325,0.32193 -0.47868,-0.0125 0.1514,0.31119 0.20524,0.10547 0.41274,0.113 0.60559,0.31119 0.15752,0.16189 0.0566,0.36935 0.1514,0.46679 0.0439,0.0451 0.65029,0.40309 0.75699,0.6224 0.12638,0.25978 0.062,0.5023 0.15139,0.77798 0.0576,0.1774 0.24526,0.28938 0.3028,0.46679 0.0916,0.28228 0.0806,0.64248 0.15139,0.93358 0.10142,0.41688 0.31513,0.88746 0.4542,1.24478 0.13254,0.34052 0.0189,0.74866 0.1514,1.08918 0.053,0.13621 0.22936,0.1854 0.3028,0.31119 0.0821,0.14065 0.0693,0.32615 0.15139,0.4668 0.16866,0.28889 0.63663,0.62432 0.757,0.93358 0.0562,0.14447 -0.0249,0.31331 0,0.4668 0.0661,0.40744 0.37951,0.70546 0.45419,1.08917 0.0297,0.15257 0,0.31119 0,0.4668 0.0505,0.15559 0.11269,0.30767 0.1514,0.46679 0.27762,1.14128 -0.25027,2.21961 -0.4542,3.26754 -0.0495,0.25428 0.0937,0.5372 0,0.77798 -0.14424,0.3706 -0.68181,1.01403 -0.75699,1.40038 -0.0297,0.15257 0.0479,0.31917 0,0.46679 -0.016,0.0492 -0.10093,0 -0.1514,0 -0.0505,0.20746 -0.12197,0.41069 -0.15139,0.62238 -0.0214,0.15403 0.0367,0.31585 0,0.4668 -0.0731,0.30031 -0.9084,1.66925 -0.9084,2.02276 0,0.84568 -0.006,0.32433 -0.30279,0.93359 -0.1514,0.31119 0.0757,0.23339 0,0.46679 -0.0557,0.17181 -0.26601,0.47116 -0.30279,0.62238 -0.0911,0.37425 0.11926,0.87705 0,1.24478 -0.1387,0.42761 -0.51978,1.20321 -0.60559,1.55597 -0.0245,0.10059 0.0319,0.21279 0,0.3112 -0.0602,0.18556 -0.36909,0.44746 -0.45419,0.62238 -0.1014,0.20841 -0.36119,0.21561 -0.4542,0.31119 -0.0357,0.0367 0.0357,0.11893 0,0.15561 -0.0357,0.0367 -0.10094,0 -0.1514,0 -0.10094,0.0519 -0.223,0.0736 -0.3028,0.1556 -0.0798,0.082 -0.0611,0.24161 -0.15139,0.31119 -0.22933,0.17677 -1.0905,0.55248 -1.36259,0.62239 z"
       id="path43" />
    <path
       style="fill:#051304;fill-opacity:1;stroke:#282f50;stroke-width:0.232709;stroke-linejoin:round;stroke-dasharray:none;stroke-dashoffset:0;stroke-opacity:1"
       id="path44"
       sodipodi:type="arc"
       sodipodi:cx="123.28102"
       sodipodi:cy="198.70357"
       sodipodi:rx="1.130852"
       sodipodi:ry="1.130796"
       sodipodi:start="5.2034072"
       sodipodi:end="4.7781978"
       sodipodi:arc-type="arc"
       d="m 123.81425,197.70637 a 1.130852,1.130796 0 0 1 0.51496,1.42158 1.130852,1.130796 0 0 1 -1.35898,0.66287 1.130852,1.130796 0 0 1 -0.80335,-1.28092 1.130852,1.130796 0 0 1 1.18851,-0.93468"
       sodipodi:open="true" />
    <path
       style="fill:#051304;fill-opacity:1;stroke:#282f50;stroke-width:0.225523;stroke-linejoin:round;stroke-dasharray:none;stroke-dashoffset:0;stroke-opacity:1"
       id="path44-6"
       sodipodi:type="arc"
       sodipodi:cx="127.49104"
       sodipodi:cy="192.32195"
       sodipodi:rx="1.0587298"
       sodipodi:ry="1.1343914"
       sodipodi:start="5.2034072"
       sodipodi:end="4.7781978"
       sodipodi:arc-type="arc"
       d="m 127.99026,191.32158 a 1.0587298,1.1343914 0 0 1 0.48213,1.4261 1.0587298,1.1343914 0 0 1 -1.27232,0.66497 1.0587298,1.1343914 0 0 1 -0.75211,-1.28498 1.0587298,1.1343914 0 0 1 1.11271,-0.93766"
       sodipodi:open="true" />
    <path
       style="fill:none;fill-opacity:1;stroke:#282f50;stroke-width:0.373999;stroke-linejoin:round;stroke-dasharray:none;stroke-dashoffset:0;stroke-opacity:1"
       d="m 127.06731,192.94845 c -0.28961,0.22527 -0.17567,2.14454 -0.3029,2.27176 -0.0357,0.0357 -0.11575,-0.0357 -0.15145,0 -0.31336,0.31336 0.47885,-0.0122 -0.15145,0.30291 -0.0452,0.0226 -0.11575,-0.0357 -0.15145,0 -0.25757,0.25756 -0.216,0.67035 -0.45435,0.9087 -0.0357,0.0357 -0.1063,-0.0226 -0.15146,0 -0.6303,0.31515 0.16191,-0.0105 -0.15145,0.3029 -0.0357,0.0357 -0.11575,-0.0357 -0.15145,0 -0.0357,0.0357 0,0.10097 0,0.15145 -0.10097,0.0505 -0.22308,0.0716 -0.3029,0.15146 -0.0635,0.0635 -0.10556,0.36256 -0.15145,0.45435 -0.27102,0.54204 -0.74393,0.74837 -1.21161,1.06015 -0.23252,0.15502 -0.15324,0.45436 -0.45435,0.45436"
       id="path45" />
    <path
       style="fill:#051304;fill-opacity:1;stroke:#282f50;stroke-width:0.232237;stroke-linejoin:round;stroke-dasharray:none;stroke-dashoffset:0;stroke-opacity:1"
       id="path44-3"
       sodipodi:type="arc"
       sodipodi:cx="127.97818"
       sodipodi:cy="176.59384"
       sodipodi:rx="1.055371"
       sodipodi:ry="1.2067655"
       sodipodi:start="5.2034072"
       sodipodi:end="4.7781978"
       sodipodi:arc-type="arc"
       d="m 128.47581,175.52965 a 1.055371,1.2067655 0 0 1 0.4806,1.51709 1.055371,1.2067655 0 0 1 -1.26828,0.7074 1.055371,1.2067655 0 0 1 -0.74973,-1.36697 1.055371,1.2067655 0 0 1 1.10918,-0.99748"
       sodipodi:open="true" />
    <path
       style="fill:#051304;fill-opacity:1;stroke:#282f50;stroke-width:0.232237;stroke-linejoin:round;stroke-dasharray:none;stroke-dashoffset:0;stroke-opacity:1"
       id="path44-3-4"
       sodipodi:type="arc"
       sodipodi:cx="127.22648"
       sodipodi:cy="172.05763"
       sodipodi:rx="1.055371"
       sodipodi:ry="1.2067655"
       sodipodi:start="5.2034072"
       sodipodi:end="4.7781978"
       sodipodi:arc-type="arc"
       d="m 127.72411,170.99344 a 1.055371,1.2067655 0 0 1 0.4806,1.51709 1.055371,1.2067655 0 0 1 -1.26828,0.7074 1.055371,1.2067655 0 0 1 -0.74973,-1.36697 1.055371,1.2067655 0 0 1 1.10918,-0.99748"
       sodipodi:open="true" />
    <path
       style="fill:#051304;fill-opacity:1;stroke:#282f50;stroke-width:0.232237;stroke-linejoin:round;stroke-dasharray:none;stroke-dashoffset:0;stroke-opacity:1"
       id="path44-3-1"
       sodipodi:type="arc"
       sodipodi:cx="130.36317"
       sodipodi:cy="163.58914"
       sodipodi:rx="1.055371"
       sodipodi:ry="1.2067655"
       sodipodi:start="5.2034072"
       sodipodi:end="4.7781978"
       sodipodi:arc-type="arc"
       d="m 130.86081,162.52495 a 1.055371,1.2067655 0 0 1 0.48059,1.51709 1.055371,1.2067655 0 0 1 -1.26827,0.7074 1.055371,1.2067655 0 0 1 -0.74973,-1.36697 1.055371,1.2067655 0 0 1 1.10918,-0.99748"
       sodipodi:open="true" />
    <path
       style="fill:#051304;fill-opacity:1;stroke:#282f50;stroke-width:0.232237;stroke-linejoin:round;stroke-dasharray:none;stroke-dashoffset:0;stroke-opacity:1"
       id="path44-3-9"
       sodipodi:type="arc"
       sodipodi:cx="115.50635"
       sodipodi:cy="157.12419"
       sodipodi:rx="1.055371"
       sodipodi:ry="1.2067655"
       sodipodi:start="5.2034072"
       sodipodi:end="4.7781978"
       sodipodi:arc-type="arc"
       d="m 116.00398,156.06 a 1.055371,1.2067655 0 0 1 0.4806,1.51709 1.055371,1.2067655 0 0 1 -1.26828,0.7074 1.055371,1.2067655 0 0 1 -0.74973,-1.36697 1.055371,1.2067655 0 0 1 1.10918,-0.99748"
       sodipodi:open="true" />
    <path
       style="fill:#051304;fill-opacity:1;stroke:#282f50;stroke-width:0.232237;stroke-linejoin:round;stroke-dasharray:none;stroke-dashoffset:0;stroke-opacity:1"
       id="path44-3-6"
       sodipodi:type="arc"
       sodipodi:cx="128.43445"
       sodipodi:cy="136.48486"
       sodipodi:rx="1.055371"
       sodipodi:ry="1.2067655"
       sodipodi:start="5.2034072"
       sodipodi:end="4.7781978"
       sodipodi:arc-type="arc"
       d="m 128.93208,135.42067 a 1.055371,1.2067655 0 0 1 0.4806,1.51709 1.055371,1.2067655 0 0 1 -1.26828,0.7074 1.055371,1.2067655 0 0 1 -0.74973,-1.36697 1.055371,1.2067655 0 0 1 1.10918,-0.99748"
       sodipodi:open="true" />
    <path
       style="fill:none;fill-opacity:1;stroke:#282f50;stroke-width:0.373999;stroke-linejoin:round;stroke-dasharray:none;stroke-dashoffset:0;stroke-opacity:1"
       d="M 47.927897,220.46833 Z"
       id="path49" />
    <path
       style="fill:none;fill-opacity:1;stroke:#282f50;stroke-width:0.373999;stroke-linejoin:round;stroke-dasharray:none;stroke-dashoffset:0;stroke-opacity:1"
       d="M 187.7176,228.65601 Z"
       id="path51" />
  </g>
  <script
     id="mesh_polyfill"
     type="text/javascript">&#10;!function(){const t=&quot;http://www.w3.org/2000/svg&quot;,e=&quot;http://www.w3.org/1999/xlink&quot;,s=&quot;http://www.w3.org/1999/xhtml&quot;,r=2;if(document.createElementNS(t,&quot;meshgradient&quot;).x)return;const n=(t,e,s,r)=&gt;{let n=new x(.5*(e.x+s.x),.5*(e.y+s.y)),o=new x(.5*(t.x+e.x),.5*(t.y+e.y)),i=new x(.5*(s.x+r.x),.5*(s.y+r.y)),a=new x(.5*(n.x+o.x),.5*(n.y+o.y)),h=new x(.5*(n.x+i.x),.5*(n.y+i.y)),l=new x(.5*(a.x+h.x),.5*(a.y+h.y));return[[t,o,a,l],[l,h,i,r]]},o=t=&gt;{let e=t[0].distSquared(t[1]),s=t[2].distSquared(t[3]),r=.25*t[0].distSquared(t[2]),n=.25*t[1].distSquared(t[3]),o=e&gt;s?e:s,i=r&gt;n?r:n;return 18*(o&gt;i?o:i)},i=(t,e)=&gt;Math.sqrt(t.distSquared(e)),a=(t,e)=&gt;t.scale(2/3).add(e.scale(1/3)),h=t=&gt;{let e,s,r,n,o,i,a,h=new g;return t.match(/(\w+\(\s*[^)]+\))+/g).forEach(t=&gt;{let l=t.match(/[\w.-]+/g),d=l.shift();switch(d){case&quot;translate&quot;:2===l.length?e=new g(1,0,0,1,l[0],l[1]):(console.error(&quot;mesh.js: translate does not have 2 arguments!&quot;),e=new g(1,0,0,1,0,0)),h=h.append(e);break;case&quot;scale&quot;:1===l.length?s=new g(l[0],0,0,l[0],0,0):2===l.length?s=new g(l[0],0,0,l[1],0,0):(console.error(&quot;mesh.js: scale does not have 1 or 2 arguments!&quot;),s=new g(1,0,0,1,0,0)),h=h.append(s);break;case&quot;rotate&quot;:if(3===l.length&amp;&amp;(e=new g(1,0,0,1,l[1],l[2]),h=h.append(e)),l[0]){r=l[0]*Math.PI/180;let t=Math.cos(r),e=Math.sin(r);Math.abs(t)&lt;1e-16&amp;&amp;(t=0),Math.abs(e)&lt;1e-16&amp;&amp;(e=0),a=new g(t,e,-e,t,0,0),h=h.append(a)}else console.error(&quot;math.js: No argument to rotate transform!&quot;);3===l.length&amp;&amp;(e=new g(1,0,0,1,-l[1],-l[2]),h=h.append(e));break;case&quot;skewX&quot;:l[0]?(r=l[0]*Math.PI/180,n=Math.tan(r),o=new g(1,0,n,1,0,0),h=h.append(o)):console.error(&quot;math.js: No argument to skewX transform!&quot;);break;case&quot;skewY&quot;:l[0]?(r=l[0]*Math.PI/180,n=Math.tan(r),i=new g(1,n,0,1,0,0),h=h.append(i)):console.error(&quot;math.js: No argument to skewY transform!&quot;);break;case&quot;matrix&quot;:6===l.length?h=h.append(new g(...l)):console.error(&quot;math.js: Incorrect number of arguments for matrix!&quot;);break;default:console.error(&quot;mesh.js: Unhandled transform type: &quot;+d)}}),h},l=t=&gt;{let e=[],s=t.split(/[ ,]+/);for(let t=0,r=s.length-1;t&lt;r;t+=2)e.push(new x(parseFloat(s[t]),parseFloat(s[t+1])));return e},d=(t,e)=&gt;{for(let s in e)t.setAttribute(s,e[s])},c=(t,e,s,r,n)=&gt;{let o,i,a=[0,0,0,0];for(let h=0;h&lt;3;++h)e[h]&lt;t[h]&amp;&amp;e[h]&lt;s[h]||t[h]&lt;e[h]&amp;&amp;s[h]&lt;e[h]?a[h]=0:(a[h]=.5*((e[h]-t[h])/r+(s[h]-e[h])/n),o=Math.abs(3*(e[h]-t[h])/r),i=Math.abs(3*(s[h]-e[h])/n),a[h]&gt;o?a[h]=o:a[h]&gt;i&amp;&amp;(a[h]=i));return a},u=[[1,0,0,0,0,0,0,0,0,0,0,0,0,0,0,0],[0,0,0,0,1,0,0,0,0,0,0,0,0,0,0,0],[-3,3,0,0,-2,-1,0,0,0,0,0,0,0,0,0,0],[2,-2,0,0,1,1,0,0,0,0,0,0,0,0,0,0],[0,0,0,0,0,0,0,0,1,0,0,0,0,0,0,0],[0,0,0,0,0,0,0,0,0,0,0,0,1,0,0,0],[0,0,0,0,0,0,0,0,-3,3,0,0,-2,-1,0,0],[0,0,0,0,0,0,0,0,2,-2,0,0,1,1,0,0],[-3,0,3,0,0,0,0,0,-2,0,-1,0,0,0,0,0],[0,0,0,0,-3,0,3,0,0,0,0,0,-2,0,-1,0],[9,-9,-9,9,6,3,-6,-3,6,-6,3,-3,4,2,2,1],[-6,6,6,-6,-3,-3,3,3,-4,4,-2,2,-2,-2,-1,-1],[2,0,-2,0,0,0,0,0,1,0,1,0,0,0,0,0],[0,0,0,0,2,0,-2,0,0,0,0,0,1,0,1,0],[-6,6,6,-6,-4,-2,4,2,-3,3,-3,3,-2,-1,-2,-1],[4,-4,-4,4,2,2,-2,-2,2,-2,2,-2,1,1,1,1]],f=t=&gt;{let e=[];for(let s=0;s&lt;16;++s){e[s]=0;for(let r=0;r&lt;16;++r)e[s]+=u[s][r]*t[r]}return e},p=(t,e,s)=&gt;{const r=e*e,n=s*s,o=e*e*e,i=s*s*s;return t[0]+t[1]*e+t[2]*r+t[3]*o+t[4]*s+t[5]*s*e+t[6]*s*r+t[7]*s*o+t[8]*n+t[9]*n*e+t[10]*n*r+t[11]*n*o+t[12]*i+t[13]*i*e+t[14]*i*r+t[15]*i*o},y=t=&gt;{let e=[],s=[],r=[];for(let s=0;s&lt;4;++s)e[s]=[],e[s][0]=n(t[0][s],t[1][s],t[2][s],t[3][s]),e[s][1]=[],e[s][1].push(...n(...e[s][0][0])),e[s][1].push(...n(...e[s][0][1])),e[s][2]=[],e[s][2].push(...n(...e[s][1][0])),e[s][2].push(...n(...e[s][1][1])),e[s][2].push(...n(...e[s][1][2])),e[s][2].push(...n(...e[s][1][3]));for(let t=0;t&lt;8;++t){s[t]=[];for(let r=0;r&lt;4;++r)s[t][r]=[],s[t][r][0]=n(e[0][2][t][r],e[1][2][t][r],e[2][2][t][r],e[3][2][t][r]),s[t][r][1]=[],s[t][r][1].push(...n(...s[t][r][0][0])),s[t][r][1].push(...n(...s[t][r][0][1])),s[t][r][2]=[],s[t][r][2].push(...n(...s[t][r][1][0])),s[t][r][2].push(...n(...s[t][r][1][1])),s[t][r][2].push(...n(...s[t][r][1][2])),s[t][r][2].push(...n(...s[t][r][1][3]))}for(let t=0;t&lt;8;++t){r[t]=[];for(let e=0;e&lt;8;++e)r[t][e]=[],r[t][e][0]=s[t][0][2][e],r[t][e][1]=s[t][1][2][e],r[t][e][2]=s[t][2][2][e],r[t][e][3]=s[t][3][2][e]}return r};class x{constructor(t,e){this.x=t||0,this.y=e||0}toString(){return`(x=${this.x}, y=${this.y})`}clone(){return new x(this.x,this.y)}add(t){return new x(this.x+t.x,this.y+t.y)}scale(t){return void 0===t.x?new x(this.x*t,this.y*t):new x(this.x*t.x,this.y*t.y)}distSquared(t){let e=this.x-t.x,s=this.y-t.y;return e*e+s*s}transform(t){let e=this.x*t.a+this.y*t.c+t.e,s=this.x*t.b+this.y*t.d+t.f;return new x(e,s)}}class g{constructor(t,e,s,r,n,o){void 0===t?(this.a=1,this.b=0,this.c=0,this.d=1,this.e=0,this.f=0):(this.a=t,this.b=e,this.c=s,this.d=r,this.e=n,this.f=o)}toString(){return`affine: ${this.a} ${this.c} ${this.e} \n       ${this.b} ${this.d} ${this.f}`}append(t){t instanceof g||console.error(&quot;mesh.js: argument to Affine.append is not affine!&quot;);let e=this.a*t.a+this.c*t.b,s=this.b*t.a+this.d*t.b,r=this.a*t.c+this.c*t.d,n=this.b*t.c+this.d*t.d,o=this.a*t.e+this.c*t.f+this.e,i=this.b*t.e+this.d*t.f+this.f;return new g(e,s,r,n,o,i)}}class w{constructor(t,e){this.nodes=t,this.colors=e}paintCurve(t,e){if(o(this.nodes)&gt;r){const s=n(...this.nodes);let r=[[],[]],o=[[],[]];for(let t=0;t&lt;4;++t)r[0][t]=this.colors[0][t],r[1][t]=(this.colors[0][t]+this.colors[1][t])/2,o[0][t]=r[1][t],o[1][t]=this.colors[1][t];let i=new w(s[0],r),a=new w(s[1],o);i.paintCurve(t,e),a.paintCurve(t,e)}else{let s=Math.round(this.nodes[0].x);if(s&gt;=0&amp;&amp;s&lt;e){let r=4*(~~this.nodes[0].y*e+s);t[r]=Math.round(this.colors[0][0]),t[r+1]=Math.round(this.colors[0][1]),t[r+2]=Math.round(this.colors[0][2]),t[r+3]=Math.round(this.colors[0][3])}}}}class m{constructor(t,e){this.nodes=t,this.colors=e}split(){let t=[[],[],[],[]],e=[[],[],[],[]],s=[[[],[]],[[],[]]],r=[[[],[]],[[],[]]];for(let s=0;s&lt;4;++s){const r=n(this.nodes[0][s],this.nodes[1][s],this.nodes[2][s],this.nodes[3][s]);t[0][s]=r[0][0],t[1][s]=r[0][1],t[2][s]=r[0][2],t[3][s]=r[0][3],e[0][s]=r[1][0],e[1][s]=r[1][1],e[2][s]=r[1][2],e[3][s]=r[1][3]}for(let t=0;t&lt;4;++t)s[0][0][t]=this.colors[0][0][t],s[0][1][t]=this.colors[0][1][t],s[1][0][t]=(this.colors[0][0][t]+this.colors[1][0][t])/2,s[1][1][t]=(this.colors[0][1][t]+this.colors[1][1][t])/2,r[0][0][t]=s[1][0][t],r[0][1][t]=s[1][1][t],r[1][0][t]=this.colors[1][0][t],r[1][1][t]=this.colors[1][1][t];return[new m(t,s),new m(e,r)]}paint(t,e){let s,n=!1;for(let t=0;t&lt;4;++t)if((s=o([this.nodes[0][t],this.nodes[1][t],this.nodes[2][t],this.nodes[3][t]]))&gt;r){n=!0;break}if(n){let s=this.split();s[0].paint(t,e),s[1].paint(t,e)}else{new w([...this.nodes[0]],[...this.colors[0]]).paintCurve(t,e)}}}class b{constructor(t){this.readMesh(t),this.type=t.getAttribute(&quot;type&quot;)||&quot;bilinear&quot;}readMesh(t){let e=[[]],s=[[]],r=Number(t.getAttribute(&quot;x&quot;)),n=Number(t.getAttribute(&quot;y&quot;));e[0][0]=new x(r,n);let o=t.children;for(let t=0,r=o.length;t&lt;r;++t){e[3*t+1]=[],e[3*t+2]=[],e[3*t+3]=[],s[t+1]=[];let r=o[t].children;for(let n=0,o=r.length;n&lt;o;++n){let o=r[n].children;for(let r=0,i=o.length;r&lt;i;++r){let i=r;0!==t&amp;&amp;++i;let h,d=o[r].getAttribute(&quot;path&quot;),c=&quot;l&quot;;null!=d&amp;&amp;(c=(h=d.match(/\s*([lLcC])\s*(.*)/))[1]);let u=l(h[2]);switch(c){case&quot;l&quot;:0===i?(e[3*t][3*n+3]=u[0].add(e[3*t][3*n]),e[3*t][3*n+1]=a(e[3*t][3*n],e[3*t][3*n+3]),e[3*t][3*n+2]=a(e[3*t][3*n+3],e[3*t][3*n])):1===i?(e[3*t+3][3*n+3]=u[0].add(e[3*t][3*n+3]),e[3*t+1][3*n+3]=a(e[3*t][3*n+3],e[3*t+3][3*n+3]),e[3*t+2][3*n+3]=a(e[3*t+3][3*n+3],e[3*t][3*n+3])):2===i?(0===n&amp;&amp;(e[3*t+3][3*n+0]=u[0].add(e[3*t+3][3*n+3])),e[3*t+3][3*n+1]=a(e[3*t+3][3*n],e[3*t+3][3*n+3]),e[3*t+3][3*n+2]=a(e[3*t+3][3*n+3],e[3*t+3][3*n])):(e[3*t+1][3*n]=a(e[3*t][3*n],e[3*t+3][3*n]),e[3*t+2][3*n]=a(e[3*t+3][3*n],e[3*t][3*n]));break;case&quot;L&quot;:0===i?(e[3*t][3*n+3]=u[0],e[3*t][3*n+1]=a(e[3*t][3*n],e[3*t][3*n+3]),e[3*t][3*n+2]=a(e[3*t][3*n+3],e[3*t][3*n])):1===i?(e[3*t+3][3*n+3]=u[0],e[3*t+1][3*n+3]=a(e[3*t][3*n+3],e[3*t+3][3*n+3]),e[3*t+2][3*n+3]=a(e[3*t+3][3*n+3],e[3*t][3*n+3])):2===i?(0===n&amp;&amp;(e[3*t+3][3*n+0]=u[0]),e[3*t+3][3*n+1]=a(e[3*t+3][3*n],e[3*t+3][3*n+3]),e[3*t+3][3*n+2]=a(e[3*t+3][3*n+3],e[3*t+3][3*n])):(e[3*t+1][3*n]=a(e[3*t][3*n],e[3*t+3][3*n]),e[3*t+2][3*n]=a(e[3*t+3][3*n],e[3*t][3*n]));break;case&quot;c&quot;:0===i?(e[3*t][3*n+1]=u[0].add(e[3*t][3*n]),e[3*t][3*n+2]=u[1].add(e[3*t][3*n]),e[3*t][3*n+3]=u[2].add(e[3*t][3*n])):1===i?(e[3*t+1][3*n+3]=u[0].add(e[3*t][3*n+3]),e[3*t+2][3*n+3]=u[1].add(e[3*t][3*n+3]),e[3*t+3][3*n+3]=u[2].add(e[3*t][3*n+3])):2===i?(e[3*t+3][3*n+2]=u[0].add(e[3*t+3][3*n+3]),e[3*t+3][3*n+1]=u[1].add(e[3*t+3][3*n+3]),0===n&amp;&amp;(e[3*t+3][3*n+0]=u[2].add(e[3*t+3][3*n+3]))):(e[3*t+2][3*n]=u[0].add(e[3*t+3][3*n]),e[3*t+1][3*n]=u[1].add(e[3*t+3][3*n]));break;case&quot;C&quot;:0===i?(e[3*t][3*n+1]=u[0],e[3*t][3*n+2]=u[1],e[3*t][3*n+3]=u[2]):1===i?(e[3*t+1][3*n+3]=u[0],e[3*t+2][3*n+3]=u[1],e[3*t+3][3*n+3]=u[2]):2===i?(e[3*t+3][3*n+2]=u[0],e[3*t+3][3*n+1]=u[1],0===n&amp;&amp;(e[3*t+3][3*n+0]=u[2])):(e[3*t+2][3*n]=u[0],e[3*t+1][3*n]=u[1]);break;default:console.error(&quot;mesh.js: &quot;+c+&quot; invalid path type.&quot;)}if(0===t&amp;&amp;0===n||r&gt;0){let e=window.getComputedStyle(o[r]).stopColor.match(/^rgb\s*\(\s*(\d+)\s*,\s*(\d+)\s*,\s*(\d+)\s*\)$/i),a=window.getComputedStyle(o[r]).stopOpacity,h=255;a&amp;&amp;(h=Math.floor(255*a)),e&amp;&amp;(0===i?(s[t][n]=[],s[t][n][0]=Math.floor(e[1]),s[t][n][1]=Math.floor(e[2]),s[t][n][2]=Math.floor(e[3]),s[t][n][3]=h):1===i?(s[t][n+1]=[],s[t][n+1][0]=Math.floor(e[1]),s[t][n+1][1]=Math.floor(e[2]),s[t][n+1][2]=Math.floor(e[3]),s[t][n+1][3]=h):2===i?(s[t+1][n+1]=[],s[t+1][n+1][0]=Math.floor(e[1]),s[t+1][n+1][1]=Math.floor(e[2]),s[t+1][n+1][2]=Math.floor(e[3]),s[t+1][n+1][3]=h):3===i&amp;&amp;(s[t+1][n]=[],s[t+1][n][0]=Math.floor(e[1]),s[t+1][n][1]=Math.floor(e[2]),s[t+1][n][2]=Math.floor(e[3]),s[t+1][n][3]=h))}}e[3*t+1][3*n+1]=new x,e[3*t+1][3*n+2]=new x,e[3*t+2][3*n+1]=new x,e[3*t+2][3*n+2]=new x,e[3*t+1][3*n+1].x=(-4*e[3*t][3*n].x+6*(e[3*t][3*n+1].x+e[3*t+1][3*n].x)+-2*(e[3*t][3*n+3].x+e[3*t+3][3*n].x)+3*(e[3*t+3][3*n+1].x+e[3*t+1][3*n+3].x)+-1*e[3*t+3][3*n+3].x)/9,e[3*t+1][3*n+2].x=(-4*e[3*t][3*n+3].x+6*(e[3*t][3*n+2].x+e[3*t+1][3*n+3].x)+-2*(e[3*t][3*n].x+e[3*t+3][3*n+3].x)+3*(e[3*t+3][3*n+2].x+e[3*t+1][3*n].x)+-1*e[3*t+3][3*n].x)/9,e[3*t+2][3*n+1].x=(-4*e[3*t+3][3*n].x+6*(e[3*t+3][3*n+1].x+e[3*t+2][3*n].x)+-2*(e[3*t+3][3*n+3].x+e[3*t][3*n].x)+3*(e[3*t][3*n+1].x+e[3*t+2][3*n+3].x)+-1*e[3*t][3*n+3].x)/9,e[3*t+2][3*n+2].x=(-4*e[3*t+3][3*n+3].x+6*(e[3*t+3][3*n+2].x+e[3*t+2][3*n+3].x)+-2*(e[3*t+3][3*n].x+e[3*t][3*n+3].x)+3*(e[3*t][3*n+2].x+e[3*t+2][3*n].x)+-1*e[3*t][3*n].x)/9,e[3*t+1][3*n+1].y=(-4*e[3*t][3*n].y+6*(e[3*t][3*n+1].y+e[3*t+1][3*n].y)+-2*(e[3*t][3*n+3].y+e[3*t+3][3*n].y)+3*(e[3*t+3][3*n+1].y+e[3*t+1][3*n+3].y)+-1*e[3*t+3][3*n+3].y)/9,e[3*t+1][3*n+2].y=(-4*e[3*t][3*n+3].y+6*(e[3*t][3*n+2].y+e[3*t+1][3*n+3].y)+-2*(e[3*t][3*n].y+e[3*t+3][3*n+3].y)+3*(e[3*t+3][3*n+2].y+e[3*t+1][3*n].y)+-1*e[3*t+3][3*n].y)/9,e[3*t+2][3*n+1].y=(-4*e[3*t+3][3*n].y+6*(e[3*t+3][3*n+1].y+e[3*t+2][3*n].y)+-2*(e[3*t+3][3*n+3].y+e[3*t][3*n].y)+3*(e[3*t][3*n+1].y+e[3*t+2][3*n+3].y)+-1*e[3*t][3*n+3].y)/9,e[3*t+2][3*n+2].y=(-4*e[3*t+3][3*n+3].y+6*(e[3*t+3][3*n+2].y+e[3*t+2][3*n+3].y)+-2*(e[3*t+3][3*n].y+e[3*t][3*n+3].y)+3*(e[3*t][3*n+2].y+e[3*t+2][3*n].y)+-1*e[3*t][3*n].y)/9}}this.nodes=e,this.colors=s}paintMesh(t,e){let s=(this.nodes.length-1)/3,r=(this.nodes[0].length-1)/3;if(&quot;bilinear&quot;===this.type||s&lt;2||r&lt;2){let n;for(let o=0;o&lt;s;++o)for(let s=0;s&lt;r;++s){let r=[];for(let t=3*o,e=3*o+4;t&lt;e;++t)r.push(this.nodes[t].slice(3*s,3*s+4));let i=[];i.push(this.colors[o].slice(s,s+2)),i.push(this.colors[o+1].slice(s,s+2)),(n=new m(r,i)).paint(t,e)}}else{let n,o,a,h,l,d,u;const x=s,g=r;s++,r++;let w=new Array(s);for(let t=0;t&lt;s;++t){w[t]=new Array(r);for(let e=0;e&lt;r;++e)w[t][e]=[],w[t][e][0]=this.nodes[3*t][3*e],w[t][e][1]=this.colors[t][e]}for(let t=0;t&lt;s;++t)for(let e=0;e&lt;r;++e)0!==t&amp;&amp;t!==x&amp;&amp;(n=i(w[t-1][e][0],w[t][e][0]),o=i(w[t+1][e][0],w[t][e][0]),w[t][e][2]=c(w[t-1][e][1],w[t][e][1],w[t+1][e][1],n,o)),0!==e&amp;&amp;e!==g&amp;&amp;(n=i(w[t][e-1][0],w[t][e][0]),o=i(w[t][e+1][0],w[t][e][0]),w[t][e][3]=c(w[t][e-1][1],w[t][e][1],w[t][e+1][1],n,o));for(let t=0;t&lt;r;++t){w[0][t][2]=[],w[x][t][2]=[];for(let e=0;e&lt;4;++e)n=i(w[1][t][0],w[0][t][0]),o=i(w[x][t][0],w[x-1][t][0]),w[0][t][2][e]=n&gt;0?2*(w[1][t][1][e]-w[0][t][1][e])/n-w[1][t][2][e]:0,w[x][t][2][e]=o&gt;0?2*(w[x][t][1][e]-w[x-1][t][1][e])/o-w[x-1][t][2][e]:0}for(let t=0;t&lt;s;++t){w[t][0][3]=[],w[t][g][3]=[];for(let e=0;e&lt;4;++e)n=i(w[t][1][0],w[t][0][0]),o=i(w[t][g][0],w[t][g-1][0]),w[t][0][3][e]=n&gt;0?2*(w[t][1][1][e]-w[t][0][1][e])/n-w[t][1][3][e]:0,w[t][g][3][e]=o&gt;0?2*(w[t][g][1][e]-w[t][g-1][1][e])/o-w[t][g-1][3][e]:0}for(let s=0;s&lt;x;++s)for(let r=0;r&lt;g;++r){let n=i(w[s][r][0],w[s+1][r][0]),o=i(w[s][r+1][0],w[s+1][r+1][0]),c=i(w[s][r][0],w[s][r+1][0]),x=i(w[s+1][r][0],w[s+1][r+1][0]),g=[[],[],[],[]];for(let t=0;t&lt;4;++t){(d=[])[0]=w[s][r][1][t],d[1]=w[s+1][r][1][t],d[2]=w[s][r+1][1][t],d[3]=w[s+1][r+1][1][t],d[4]=w[s][r][2][t]*n,d[5]=w[s+1][r][2][t]*n,d[6]=w[s][r+1][2][t]*o,d[7]=w[s+1][r+1][2][t]*o,d[8]=w[s][r][3][t]*c,d[9]=w[s+1][r][3][t]*x,d[10]=w[s][r+1][3][t]*c,d[11]=w[s+1][r+1][3][t]*x,d[12]=0,d[13]=0,d[14]=0,d[15]=0,u=f(d);for(let e=0;e&lt;9;++e){g[t][e]=[];for(let s=0;s&lt;9;++s)g[t][e][s]=p(u,e/8,s/8),g[t][e][s]&gt;255?g[t][e][s]=255:g[t][e][s]&lt;0&amp;&amp;(g[t][e][s]=0)}}h=[];for(let t=3*s,e=3*s+4;t&lt;e;++t)h.push(this.nodes[t].slice(3*r,3*r+4));l=y(h);for(let s=0;s&lt;8;++s)for(let r=0;r&lt;8;++r)(a=new m(l[s][r],[[[g[0][s][r],g[1][s][r],g[2][s][r],g[3][s][r]],[g[0][s][r+1],g[1][s][r+1],g[2][s][r+1],g[3][s][r+1]]],[[g[0][s+1][r],g[1][s+1][r],g[2][s+1][r],g[3][s+1][r]],[g[0][s+1][r+1],g[1][s+1][r+1],g[2][s+1][r+1],g[3][s+1][r+1]]]])).paint(t,e)}}}transform(t){if(t instanceof x)for(let e=0,s=this.nodes.length;e&lt;s;++e)for(let s=0,r=this.nodes[0].length;s&lt;r;++s)this.nodes[e][s]=this.nodes[e][s].add(t);else if(t instanceof g)for(let e=0,s=this.nodes.length;e&lt;s;++e)for(let s=0,r=this.nodes[0].length;s&lt;r;++s)this.nodes[e][s]=this.nodes[e][s].transform(t)}scale(t){for(let e=0,s=this.nodes.length;e&lt;s;++e)for(let s=0,r=this.nodes[0].length;s&lt;r;++s)this.nodes[e][s]=this.nodes[e][s].scale(t)}}document.querySelectorAll(&quot;rect,circle,ellipse,path,text&quot;).forEach((r,n)=&gt;{let o=r.getAttribute(&quot;id&quot;);o||(o=&quot;patchjs_shape&quot;+n,r.setAttribute(&quot;id&quot;,o));const i=r.style.fill.match(/^url\(\s*&quot;?\s*#([^\s&quot;]+)&quot;?\s*\)/),a=r.style.stroke.match(/^url\(\s*&quot;?\s*#([^\s&quot;]+)&quot;?\s*\)/);if(i&amp;&amp;i[1]){const a=document.getElementById(i[1]);if(a&amp;&amp;&quot;meshgradient&quot;===a.nodeName){const i=r.getBBox();let l=document.createElementNS(s,&quot;canvas&quot;);d(l,{width:i.width,height:i.height});const c=l.getContext(&quot;2d&quot;);let u=c.createImageData(i.width,i.height);const f=new b(a);&quot;objectBoundingBox&quot;===a.getAttribute(&quot;gradientUnits&quot;)&amp;&amp;f.scale(new x(i.width,i.height));const p=a.getAttribute(&quot;gradientTransform&quot;);null!=p&amp;&amp;f.transform(h(p)),&quot;userSpaceOnUse&quot;===a.getAttribute(&quot;gradientUnits&quot;)&amp;&amp;f.transform(new x(-i.x,-i.y)),f.paintMesh(u.data,l.width),c.putImageData(u,0,0);const y=document.createElementNS(t,&quot;image&quot;);d(y,{width:i.width,height:i.height,x:i.x,y:i.y});let g=l.toDataURL();y.setAttributeNS(e,&quot;xlink:href&quot;,g),r.parentNode.insertBefore(y,r),r.style.fill=&quot;none&quot;;const w=document.createElementNS(t,&quot;use&quot;);w.setAttributeNS(e,&quot;xlink:href&quot;,&quot;#&quot;+o);const m=&quot;patchjs_clip&quot;+n,M=document.createElementNS(t,&quot;clipPath&quot;);M.setAttribute(&quot;id&quot;,m),M.appendChild(w),r.parentElement.insertBefore(M,r),y.setAttribute(&quot;clip-path&quot;,&quot;url(#&quot;+m+&quot;)&quot;),u=null,l=null,g=null}}if(a&amp;&amp;a[1]){const o=document.getElementById(a[1]);if(o&amp;&amp;&quot;meshgradient&quot;===o.nodeName){const i=parseFloat(r.style.strokeWidth.slice(0,-2))*(parseFloat(r.style.strokeMiterlimit)||parseFloat(r.getAttribute(&quot;stroke-miterlimit&quot;))||1),a=r.getBBox(),l=Math.trunc(a.width+i),c=Math.trunc(a.height+i),u=Math.trunc(a.x-i/2),f=Math.trunc(a.y-i/2);let p=document.createElementNS(s,&quot;canvas&quot;);d(p,{width:l,height:c});const y=p.getContext(&quot;2d&quot;);let g=y.createImageData(l,c);const w=new b(o);&quot;objectBoundingBox&quot;===o.getAttribute(&quot;gradientUnits&quot;)&amp;&amp;w.scale(new x(l,c));const m=o.getAttribute(&quot;gradientTransform&quot;);null!=m&amp;&amp;w.transform(h(m)),&quot;userSpaceOnUse&quot;===o.getAttribute(&quot;gradientUnits&quot;)&amp;&amp;w.transform(new x(-u,-f)),w.paintMesh(g.data,p.width),y.putImageData(g,0,0);const M=document.createElementNS(t,&quot;image&quot;);d(M,{width:l,height:c,x:0,y:0});let S=p.toDataURL();M.setAttributeNS(e,&quot;xlink:href&quot;,S);const k=&quot;pattern_clip&quot;+n,A=document.createElementNS(t,&quot;pattern&quot;);d(A,{id:k,patternUnits:&quot;userSpaceOnUse&quot;,width:l,height:c,x:u,y:f}),A.appendChild(M),o.parentNode.appendChild(A),r.style.stroke=&quot;url(#&quot;+k+&quot;)&quot;,g=null,p=null,S=null}}})}();&#10;</script>
</svg>
