<?xml version="1.0" encoding="UTF-8" standalone="no"?>
<!-- Created with Inkscape (http://www.inkscape.org/) -->

<svg
   width="72.49781mm"
   height="46.958431mm"
   viewBox="0 0 72.49781 46.958431"
   version="1.1"
   id="svg1"
   inkscape:version="1.3 (0e150ed6c4, 2023-07-21)"
   sodipodi:docname="strong_def.svg"
   xmlns:inkscape="http://www.inkscape.org/namespaces/inkscape"
   xmlns:sodipodi="http://sodipodi.sourceforge.net/DTD/sodipodi-0.dtd"
   xmlns="http://www.w3.org/2000/svg"
   xmlns:svg="http://www.w3.org/2000/svg">
  <sodipodi:namedview
     id="namedview1"
     pagecolor="#ffffff"
     bordercolor="#000000"
     borderopacity="0.25"
     inkscape:showpageshadow="2"
     inkscape:pageopacity="0.0"
     inkscape:pagecheckerboard="0"
     inkscape:deskcolor="#d1d1d1"
     inkscape:document-units="mm"
     inkscape:zoom="4.5576038"
     inkscape:cx="126.27249"
     inkscape:cy="76.46562"
     inkscape:window-width="2880"
     inkscape:window-height="1514"
     inkscape:window-x="2869"
     inkscape:window-y="-11"
     inkscape:window-maximized="1"
     inkscape:current-layer="layer1" />
  <defs
     id="defs1" />
  <g
     inkscape:label="Layer 1"
     inkscape:groupmode="layer"
     id="layer1"
     transform="translate(-15.570896,-128.23969)">
    <g
       id="g1"
       style="fill:#f0f0f0;fill-opacity:1;stroke:#000000;stroke-dasharray:3, 3;stroke-dashoffset:0;stroke-opacity:1">
      <rect
         style="fill:#f0f0f0;fill-opacity:1;fill-rule:evenodd;stroke:#000000;stroke-width:0.264583;stroke-dasharray:3, 3;stroke-dashoffset:0;stroke-opacity:1"
         id="rect1"
         width="59.029591"
         height="36.123814"
         x="23.39838"
         y="133.4118" />
    </g>
    <path
       style="fill:#ffffff;fill-opacity:1;stroke:#160202;stroke-width:0;stroke-dasharray:none;stroke-dashoffset:0;stroke-opacity:1"
       id="path2"
       d="m 152.36225,135.29831 c 0.0518,0.0402 0.10361,0.0804 0.15541,0.12056 0,0 3.65365,1.46971 3.65365,1.46971 v 0 c -0.0451,-0.0386 -0.0902,-0.0773 -0.13535,-0.11597 z" />
    <path
       style="fill:#ffffff;fill-opacity:1;stroke:#160202;stroke-width:0;stroke-dasharray:none;stroke-dashoffset:0;stroke-opacity:1"
       id="path4"
       sodipodi:type="arc"
       sodipodi:cx="152.13051"
       sodipodi:cy="135.75165"
       sodipodi:rx="9.0309534"
       sodipodi:ry="13.58748"
       sodipodi:start="0"
       sodipodi:end="0.6947383"
       sodipodi:arc-type="slice"
       d="m 161.16146,135.75165 a 9.0309534,13.58748 0 0 1 -2.09318,8.69849 l -6.93777,-8.69849 z" />
    <path
       style="fill:#ffffff;fill-opacity:1;stroke:#160202;stroke-width:0;stroke-dasharray:none;stroke-dashoffset:0;stroke-opacity:1"
       id="path5"
       sodipodi:type="arc"
       sodipodi:cx="164.52756"
       sodipodi:cy="143.01746"
       sodipodi:rx="19.047102"
       sodipodi:ry="13.218032"
       sodipodi:start="0"
       sodipodi:end="0.6947383"
       sodipodi:arc-type="slice"
       d="m 183.57466,143.01746 a 19.047102,13.218032 0 0 1 -4.41471,8.46197 l -14.63239,-8.46197 z" />
    <path
       style="fill:#e9b031;fill-opacity:0.679012;stroke:#000000;stroke-width:0.161991;stroke-linejoin:round;stroke-dasharray:none;stroke-dashoffset:0;stroke-opacity:1"
       d="m 50.710699,152.59527 1.249424,-1.71764"
       id="path10" />
    <path
       style="fill:#e9b031;fill-opacity:0.679012;stroke:#000000;stroke-width:0.158322;stroke-linejoin:round;stroke-dasharray:none;stroke-dashoffset:0;stroke-opacity:1"
       d="m 50.679436,150.8037 1.3001,1.63742"
       id="path11" />
    <path
       style="fill:#e9b031;fill-opacity:0.679012;stroke:#55c848;stroke-width:0.275828;stroke-linejoin:round;stroke-dasharray:0.275828, 0.827483;stroke-dashoffset:0;stroke-opacity:1"
       d="m 51.641257,128.24162 -0.65805,46.9565"
       id="path12" />
    <path
       style="fill:#e9b031;fill-opacity:0.679012;stroke:#55c848;stroke-width:0.341712;stroke-linejoin:round;stroke-dasharray:0.341712, 1.02514;stroke-dashoffset:0;stroke-opacity:1"
       d="M 88.068008,151.55183 15.571591,151.8468"
       id="path12-1"
       inkscape:transform-center-x="-80.194371"
       inkscape:transform-center-y="-8.5869975" />
    <path
       style="fill:#efd8ed;fill-opacity:0.679012;stroke:#c348c8;stroke-width:0.3;stroke-linejoin:round;stroke-dasharray:none;stroke-dashoffset:0;stroke-opacity:1"
       d="m 51.558533,139.07668 c -1.049702,-0.26319 -2.136679,-0.31506 -3.201884,-0.4926 -0.05839,-0.01 -0.449194,-0.14485 -0.574696,-0.0821 -0.205322,0.10266 -0.447106,0.14145 -0.656796,0.2463 -0.294662,0.14733 -0.604989,0.32698 -0.903097,0.4926 -0.312545,0.17364 -0.692616,0.28779 -0.985195,0.4926 -0.175101,0.12257 -0.323882,0.27927 -0.492596,0.41049 -0.12596,0.098 -0.314756,0.11864 -0.410498,0.2463 -0.05192,0.0692 -0.0434,0.1689 -0.0821,0.2463 -0.107709,0.21542 -0.345363,0.39066 -0.492596,0.5747 -0.25914,0.32392 0.166161,-0.002 -0.2463,0.41049 -0.04327,0.0433 -0.127482,0.0332 -0.164198,0.0821 -0.05192,0.0692 -0.03758,0.17209 -0.0821,0.24629 -0.07965,0.13275 -0.248751,0.19565 -0.328398,0.3284 -0.193599,0.32267 -0.177581,0.77615 -0.410499,1.0673 -0.03823,0.0478 -0.127481,0.0331 -0.164197,0.0821 -0.160081,0.21344 -0.263137,0.72413 -0.328399,0.98519 -0.03982,0.1593 0.02037,0.32967 0,0.4926 -0.01074,0.0859 -0.05473,0.1642 -0.0821,0.2463 -0.02737,0.13683 -0.06822,0.27165 -0.0821,0.4105 -0.01363,0.13615 0.02447,0.27587 0,0.41049 -0.03096,0.17029 -0.130254,0.32288 -0.1642,0.4926 -0.0483,0.24152 0,0.4926 0,0.7389 0,0.75733 -0.07506,1.5482 0,2.29878 0.01389,0.13885 0.0714,0.27137 0.0821,0.4105 0.02729,0.35472 -0.03221,0.71299 0,1.0673 0.04797,0.52765 0.118059,1.12902 0.2463,1.64199 0.06297,0.25187 0.140857,0.50165 0.246298,0.73889 0.06481,0.14582 0.195837,0.25912 0.246298,0.4105 0.03462,0.10385 -0.03145,0.22355 0,0.3284 0.205251,0.68416 0.228055,0.27367 0.410499,0.821 0.04413,0.13238 0.03797,0.27811 0.0821,0.41049 0.05046,0.15139 0.187034,0.26234 0.246298,0.4105 0.163438,0.2487 0.145978,0.55348 0.246298,0.821 0.02209,0.23894 0.246457,0.36984 0.328398,0.57469 0.02032,0.0508 0,0.10947 0,0.16421 0.05473,0.13683 0.09829,0.27868 0.1642,0.41049 0.147133,0.29427 0.410282,0.54697 0.574697,0.821 0.04452,0.0742 0.03017,0.17707 0.0821,0.2463 0.03672,0.049 0.125971,0.0343 0.164198,0.0821 0.07646,0.0956 0.09631,0.22656 0.1642,0.32839 0.29527,0.44291 0.02556,-0.0565 0.328398,0.2463 0.167537,0.16754 0.350666,0.47758 0.574696,0.6568 0.166905,0.13352 0.318672,0.28626 0.492599,0.4105 0.242588,0.17328 0.569412,0.2504 0.820994,0.4105 0.198612,0.12638 0.368909,0.29616 0.574699,0.41049 0.04784,0.0266 0.112273,-0.0173 0.164198,0 0.221821,0.0739 0.437864,0.1642 0.656796,0.2463 0.917996,0.34425 1.831097,0.6897 2.791386,0.9031 0.408437,0.0908 0.821968,0.26014 1.231495,0.3284 1.052671,0.17544 2.181336,-0.19529 3.201882,-0.3284 0.78713,-0.10267 1.894297,-0.0441 2.627188,-0.4105 0.176509,-0.0882 0.323376,-0.22687 0.492596,-0.3284 0.707816,-0.42469 1.459502,-0.79661 1.970392,-1.47779 0.365746,-0.48767 0.628017,-1.03852 1.067292,-1.47779 1.060778,-1.06078 0.07706,0.004 1.149395,-0.821 0.184057,-0.14158 0.328398,-0.3284 0.492598,-0.4926 0.77579,-0.77579 1.294249,-1.52593 1.477791,-2.62718 0.117493,-0.70496 -0.170313,-1.36863 -0.246298,-2.05249 -0.0272,-0.24479 0.01638,-0.49315 0,-0.7389 -0.02749,-0.41231 -0.126945,-0.82168 -0.164198,-1.23149 -0.06943,-0.76377 0.04453,-1.53898 -0.0821,-2.29879 -0.01005,-0.0604 -0.0701,-0.10419 -0.0821,-0.1642 -0.01611,-0.0805 0.01349,-0.16532 0,-0.2463 -0.122995,-0.73797 -0.516875,-1.38342 -0.820997,-2.05249 -0.185764,-0.21128 -0.144029,-0.50026 -0.246298,-0.73889 -0.208495,-0.48649 -0.502309,-0.97078 -0.820994,-1.3957 -0.698051,-0.93073 0.174924,0.34047 -0.492599,-0.41049 -0.612952,-0.68957 -0.170071,-0.41553 -0.738897,-0.9031 -0.505764,-0.43351 -1.150074,-0.6663 -1.724091,-0.9852 -1.794989,-0.99721 0.803741,0.43299 -0.738896,-0.49259 -0.157419,-0.0944 -0.337717,-0.14774 -0.492596,-0.2463 -0.231632,-0.1474 -0.684176,-0.46524 -0.903097,-0.6568 -0.116504,-0.10194 -0.201573,-0.23962 -0.328398,-0.3284 -0.150395,-0.10527 -0.335177,-0.15184 -0.492596,-0.24629 -0.3765,-0.2259 -0.638413,-0.49597 -1.067295,-0.6568 -0.07687,-0.0288 -0.166651,0.0199 -0.246298,0 -0.03755,-0.009 -0.04415,-0.0745 -0.0821,-0.0821 -0.27812,-0.0556 -0.706573,0 -0.985195,0 -0.472699,0 -1.095319,0.0929 -1.559893,0 -0.731925,-0.14638 -0.685626,-0.38167 -1.231493,0.1642 z"
       id="path13" />
    <path
       style="fill:#793148;fill-opacity:0.679012;stroke:#ec2b51;stroke-width:0.3;stroke-linejoin:round;stroke-dasharray:none;stroke-dashoffset:0;stroke-opacity:1"
       d="m 30.86944,138.09149 5.82907,4.02287"
       id="path14" />
    <path
       style="fill:#793148;fill-opacity:0.679012;stroke:#ec2b51;stroke-width:0.3;stroke-linejoin:round;stroke-dasharray:none;stroke-dashoffset:0;stroke-opacity:1"
       d="m 37.109008,140.63657 -0.246298,1.39569"
       id="path15" />
    <path
       style="fill:#793148;fill-opacity:0.679012;stroke:#ec2b51;stroke-width:0.3;stroke-linejoin:round;stroke-dasharray:none;stroke-dashoffset:0;stroke-opacity:1"
       d="m 34.974418,142.36066 1.888292,-0.3284"
       id="path16" />
    <path
       style="fill:#793148;fill-opacity:0.679012;stroke:#ec2b51;stroke-width:0.3;stroke-linejoin:round;stroke-dasharray:none;stroke-dashoffset:0;stroke-opacity:1"
       d="m 28.816951,149.09283 6.567966,0.1642"
       id="path17" />
    <path
       style="fill:#793148;fill-opacity:0.679012;stroke:#ec2b51;stroke-width:0.3;stroke-linejoin:round;stroke-dasharray:none;stroke-dashoffset:0;stroke-opacity:1"
       d="m 34.153424,147.53293 1.313593,1.642"
       id="path18" />
    <path
       style="fill:#793148;fill-opacity:0.679012;stroke:#ec2b51;stroke-width:0.3;stroke-linejoin:round;stroke-dasharray:none;stroke-dashoffset:0;stroke-opacity:1"
       d="m 34.56392,150.32432 0.0821,-0.3284"
       id="path19" />
    <path
       style="fill:#793148;fill-opacity:0.679012;stroke:#ec2b51;stroke-width:0.3;stroke-linejoin:round;stroke-dasharray:none;stroke-dashoffset:0;stroke-opacity:1"
       d="m 35.631215,148.92863 -1.067295,1.47779"
       id="path20" />
    <path
       style="fill:#793148;fill-opacity:0.679012;stroke:#ec2b51;stroke-width:0.3;stroke-linejoin:round;stroke-dasharray:none;stroke-dashoffset:0;stroke-opacity:1"
       d="m 54.514117,135.3001 0.0821,2.29879"
       id="path22" />
    <path
       style="fill:#793148;fill-opacity:0.679012;stroke:#ec2b51;stroke-width:0.3;stroke-linejoin:round;stroke-dasharray:none;stroke-dashoffset:0;stroke-opacity:1"
       d="m 53.446822,136.85999 1.231495,0.5747"
       id="path23" />
    <path
       style="fill:#793148;fill-opacity:0.679012;stroke:#ec2b51;stroke-width:0.3;stroke-linejoin:round;stroke-dasharray:none;stroke-dashoffset:0;stroke-opacity:1"
       d="m 55.663512,136.53159 -1.149395,0.9031"
       id="path24" />
    <path
       style="fill:#793148;fill-opacity:0.679012;stroke:#ec2b51;stroke-width:0.3;stroke-linejoin:round;stroke-dasharray:none;stroke-dashoffset:0;stroke-opacity:1"
       d="m 73.807518,139.97977 -5.91117,3.77658"
       id="path25" />
    <path
       style="fill:#793148;fill-opacity:0.679012;stroke:#ec2b51;stroke-width:0.3;stroke-linejoin:round;stroke-dasharray:none;stroke-dashoffset:0;stroke-opacity:1"
       d="m 67.65005,141.62176 0.246298,2.38089"
       id="path26" />
    <path
       style="fill:#793148;fill-opacity:0.679012;stroke:#ec2b51;stroke-width:0.3;stroke-linejoin:round;stroke-dasharray:none;stroke-dashoffset:0;stroke-opacity:1"
       d="m 70.030937,143.92055 -2.134589,-0.0821"
       id="path27" />
    <path
       style="fill:#793148;fill-opacity:0.679012;stroke:#ec2b51;stroke-width:0.3;stroke-linejoin:round;stroke-dasharray:none;stroke-dashoffset:0;stroke-opacity:1"
       d="m 69.20994,153.8546 8.374158,-0.0821"
       id="path28" />
    <path
       style="fill:#793148;fill-opacity:0.679012;stroke:#ec2b51;stroke-width:0.3;stroke-linejoin:round;stroke-dasharray:none;stroke-dashoffset:0;stroke-opacity:1"
       d="m 70.113037,155.66079 -0.820996,-2.05248"
       id="path29" />
    <path
       style="fill:#793148;fill-opacity:0.679012;stroke:#ec2b51;stroke-width:0.3;stroke-linejoin:round;stroke-dasharray:none;stroke-dashoffset:0;stroke-opacity:1"
       d="m 70.359335,151.88421 -1.067294,1.88829"
       id="path30" />
    <path
       style="fill:#793148;fill-opacity:0.679012;stroke:#ec2b51;stroke-width:0.3;stroke-linejoin:round;stroke-dasharray:none;stroke-dashoffset:0;stroke-opacity:1"
       d="m 63.955569,162.39296 4.022879,3.94078"
       id="path31" />
    <path
       style="fill:#793148;fill-opacity:0.679012;stroke:#ec2b51;stroke-width:0.3;stroke-linejoin:round;stroke-dasharray:none;stroke-dashoffset:0;stroke-opacity:1"
       d="m 65.925958,161.40776 -1.64199,1.0673"
       id="path32" />
    <path
       style="fill:#793148;fill-opacity:0.679012;stroke:#ec2b51;stroke-width:0.3;stroke-linejoin:round;stroke-dasharray:none;stroke-dashoffset:0;stroke-opacity:1"
       d="m 63.709269,164.77385 0.410498,-1.97039"
       id="path33" />
    <path
       style="fill:#793148;fill-opacity:0.679012;stroke:#ec2b51;stroke-width:0.3;stroke-linejoin:round;stroke-dasharray:none;stroke-dashoffset:0;stroke-opacity:1"
       d="m 32.347233,160.25837 6.075368,-3.85868"
       id="path34" />
    <path
       style="fill:#793148;fill-opacity:0.679012;stroke:#ec2b51;stroke-width:0.3;stroke-linejoin:round;stroke-dasharray:none;stroke-dashoffset:0;stroke-opacity:1"
       d="m 36.041713,155.98919 2.462988,0.4926"
       id="path35" />
    <path
       style="fill:#793148;fill-opacity:0.679012;stroke:#ec2b51;stroke-width:0.3;stroke-linejoin:round;stroke-dasharray:none;stroke-dashoffset:0;stroke-opacity:1"
       d="m 38.915199,157.95958 -0.656796,-1.88829"
       id="path36" />
    <path
       style="fill:#793148;fill-opacity:0.679012;stroke:#ec2b51;stroke-width:0.3;stroke-linejoin:round;stroke-dasharray:none;stroke-dashoffset:0;stroke-opacity:1"
       d="m 44.005372,166.49794 2.462988,-2.95559"
       id="path37" />
    <path
       style="fill:#793148;fill-opacity:0.679012;stroke:#ec2b51;stroke-width:0.3;stroke-linejoin:round;stroke-dasharray:none;stroke-dashoffset:0;stroke-opacity:1"
       d="m 44.908467,163.13186 1.888291,0.73889"
       id="path38" />
    <path
       style="fill:#793148;fill-opacity:0.679012;stroke:#ec2b51;stroke-width:0.3;stroke-linejoin:round;stroke-dasharray:none;stroke-dashoffset:0;stroke-opacity:1"
       d="m 46.632558,164.85595 -0.328398,-1.3136"
       id="path39" />
    <path
       style="fill:#793148;fill-opacity:0.679012;stroke:#ec2b51;stroke-width:0.3;stroke-linejoin:round;stroke-dasharray:none;stroke-dashoffset:0;stroke-opacity:1"
       d="m 53.548869,146.64355 1.055572,-3.98812"
       id="path40"
       inkscape:transform-center-y="-0.29026583" />
    <path
       style="fill:#793148;fill-opacity:0.679012;stroke:#ec2b51;stroke-width:0.3;stroke-linejoin:round;stroke-dasharray:none;stroke-dashoffset:0;stroke-opacity:1"
       d="m 53.118424,143.75635 1.559893,-1.06729"
       id="path41" />
    <path
       style="fill:#793148;fill-opacity:0.679012;stroke:#ec2b51;stroke-width:0.3;stroke-linejoin:round;stroke-dasharray:none;stroke-dashoffset:0;stroke-opacity:1"
       d="m 55.260965,144.47955 -0.664449,-2.03517"
       id="path42" />
    <path
       style="fill:#793148;fill-opacity:0.679012;stroke:#ec2b51;stroke-width:0.3;stroke-linejoin:round;stroke-dasharray:none;stroke-dashoffset:0;stroke-opacity:1"
       d="m 55.776946,149.35825 5.044008,-1.81626"
       id="path43" />
    <path
       style="fill:#793148;fill-opacity:0.679012;stroke:#ec2b51;stroke-width:0.3;stroke-linejoin:round;stroke-dasharray:none;stroke-dashoffset:0;stroke-opacity:1"
       d="m 58.623222,147.39862 2.298787,0.2463"
       id="path44" />
    <path
       style="fill:#793148;fill-opacity:0.679012;stroke:#ec2b51;stroke-width:0.3;stroke-linejoin:round;stroke-dasharray:none;stroke-dashoffset:0;stroke-opacity:1"
       d="m 59.790903,149.62861 1.115237,-2.02517"
       id="path45" />
    <path
       style="fill:#793148;fill-opacity:0.679012;stroke:#ec2b51;stroke-width:0.3;stroke-linejoin:round;stroke-dasharray:none;stroke-dashoffset:0;stroke-opacity:1"
       d="m 54.364713,154.53132 2.955583,3.53028"
       id="path46" />
    <path
       style="fill:#793148;fill-opacity:0.679012;stroke:#ec2b51;stroke-width:0.3;stroke-linejoin:round;stroke-dasharray:none;stroke-dashoffset:0;stroke-opacity:1"
       d="m 55.359868,157.72908 2.134587,0.4105"
       id="path47" />
    <path
       style="fill:#793148;fill-opacity:0.679012;stroke:#ec2b51;stroke-width:0.3;stroke-linejoin:round;stroke-dasharray:none;stroke-dashoffset:0;stroke-opacity:1"
       d="m 57.504418,156.15922 v 1.88829"
       id="path48" />
    <path
       style="fill:#793148;fill-opacity:0.679012;stroke:#ec2b51;stroke-width:0.3;stroke-linejoin:round;stroke-dasharray:none;stroke-dashoffset:0;stroke-opacity:1"
       d="m 49.259743,154.2651 -2.955583,3.77658"
       id="path49" />
    <path
       style="fill:#793148;fill-opacity:0.679012;stroke:#ec2b51;stroke-width:0.3;stroke-linejoin:round;stroke-dasharray:none;stroke-dashoffset:0;stroke-opacity:1"
       d="m 46.057862,155.98919 0.328398,1.97039"
       id="path50" />
    <path
       style="fill:#793148;fill-opacity:0.679012;stroke:#ec2b51;stroke-width:0.3;stroke-linejoin:round;stroke-dasharray:none;stroke-dashoffset:0;stroke-opacity:1"
       d="m 48.110351,157.95958 -1.806191,-0.3284"
       id="path51" />
    <path
       style="fill:#793148;fill-opacity:0.679012;stroke:#ec2b51;stroke-width:0.3;stroke-linejoin:round;stroke-dasharray:none;stroke-dashoffset:0;stroke-opacity:1"
       d="m 48.74157,148.88371 -4.472575,-4.92408"
       id="path52" />
    <path
       style="fill:#793148;fill-opacity:0.679012;stroke:#ec2b51;stroke-width:0.3;stroke-linejoin:round;stroke-dasharray:none;stroke-dashoffset:0;stroke-opacity:1"
       d="m 44.087473,145.39835 0.328398,-1.642"
       id="path53" />
    <path
       style="fill:#793148;fill-opacity:0.679012;stroke:#ec2b51;stroke-width:0.3;stroke-linejoin:round;stroke-dasharray:none;stroke-dashoffset:0;stroke-opacity:1"
       d="m 46.057862,143.83845 -2.298788,0.1642"
       id="path54" />
    <path
       style="fill:#ffffff;fill-opacity:1;stroke:#1f0308;stroke-width:0.199905;stroke-linejoin:round;stroke-dasharray:none;stroke-dashoffset:0;stroke-opacity:1"
       d="m 51.209079,150.90523 c -0.04313,0.003 -0.09077,-0.006 -0.131782,0.004 -0.0093,0.002 -0.02422,-0.003 -0.03295,0 -0.0024,0.001 -0.003,0.003 -0.0055,0.004 -0.0052,0.001 -0.01191,-0.002 -0.01648,0 -0.0043,0.002 -0.0066,0.006 -0.01099,0.008 -0.01597,0.008 -0.04565,0.01 -0.0604,0.0213 -0.0076,0.006 -0.0137,0.0148 -0.02197,0.0213 -0.0036,0.003 -0.0066,0.006 -0.01097,0.008 -0.0016,5.9e-4 -0.0042,-0.001 -0.0055,0 -0.0029,0.002 -0.0022,0.007 -0.0055,0.008 -0.0046,0.003 -0.011,0.003 -0.01647,0.004 -0.0055,0.003 -0.01131,0.005 -0.01648,0.008 -0.02036,0.0126 -0.05665,0.0382 -0.07138,0.0554 -0.003,0.003 0.0014,0.009 0,0.0128 -0.0029,0.009 -0.01203,0.0212 -0.01648,0.0298 -0.0082,0.0159 -0.01926,0.031 -0.02746,0.0468 -0.0029,0.006 -0.0024,0.0164 -0.0055,0.0213 -8.32e-4,0.001 -0.0036,0 -0.0055,0 -0.0019,0.003 -0.0045,0.005 -0.0055,0.008 -0.0066,0.0206 -0.01041,0.0428 -0.01647,0.0639 -0.0021,0.007 -0.0094,0.0138 -0.011,0.0213 -0.0019,0.008 0.0026,0.0173 0,0.0255 -0.01175,0.0365 -0.01498,0.0771 -0.02197,0.11498 -0.0023,0.0122 0.0039,0.0263 0,0.0383 -0.01245,0.0386 -0.0055,0.0833 -0.0055,0.1235 0,0.009 -0.0051,0.0559 0,0.0638 0.0055,0.008 0.0014,0.007 0.0055,0.017 8.32e-4,0.002 0.0047,0.002 0.0055,0.004 0.0012,0.003 -0.0016,0.006 0,0.008 0.0076,0.0118 0.03222,0.022 0.03843,0.0341 0.002,0.004 0,0.008 0,0.0128 0.0019,0.004 0.0029,0.009 0.0055,0.0128 0.01343,0.0209 0.03784,0.0372 0.04942,0.0596 0.0043,0.008 0.01894,0.0349 0.01648,0.0426 -9.7e-4,0.003 -0.0055,0.005 -0.0055,0.008 0,0.0164 0.01093,0.0105 0.01648,0.0255 0.002,0.005 -0.0019,0.0115 0,0.017 4e-4,0.001 0.005,-0.001 0.0055,0 0.0019,0.005 -0.0019,0.0115 0,0.017 0.0026,0.008 0.01649,0.0299 0.02196,0.0383 0.0056,0.008 0.02056,0.0133 0.02745,0.0213 0.0045,0.005 0.0052,0.0125 0.01097,0.017 0.0057,0.005 0.01515,0.005 0.02197,0.008 0.03405,0.0176 0.01135,0.009 0.04941,0.0298 0.03818,0.0207 0.01544,0.006 0.0549,0.0213 0.03434,0.0134 0.06719,0.0344 0.104327,0.0426 0.0053,0.001 0.01103,-5.8e-4 0.01648,0 0.01417,-0.005 0.0216,0.007 0.03295,0.008 0.03995,0.006 0.08008,0.009 0.120799,0.0128 0.05094,0.004 0.0986,0.0173 0.148252,0.0255 0.04973,0.008 0.139966,0.0143 0.192178,0.008 0.01071,-0.001 0.02229,-0.007 0.03295,-0.008 0.0054,-5.8e-4 0.01155,0.002 0.01648,0 0.0036,-0.001 0.0026,-0.006 0.0055,-0.008 0.01916,-0.0148 0.05745,-0.027 0.08236,-0.0341 0.03738,-0.0105 0.07314,-0.0113 0.109815,-0.0255 0.02517,-0.01 0.03034,-0.0278 0.04941,-0.0426 0.0064,-0.005 0.02316,-0.003 0.02746,-0.017 0.0069,-0.0213 -0.0056,-0.0466 0,-0.0682 0.01237,-0.048 0.03855,-0.0948 0.04392,-0.14478 0.0037,-0.0347 0.0045,-0.0889 0,-0.12349 -0.0022,-0.0172 -0.0086,-0.0339 -0.01099,-0.0511 -0.0016,-0.0112 0.0016,-0.0229 0,-0.0341 -0.0057,-0.0404 -0.01097,-0.0824 -0.01097,-0.12349 0,-0.0142 -0.0035,-0.0287 0,-0.0426 8.32e-4,-0.003 0.0047,-0.005 0.0055,-0.008 0.0064,-0.025 0,-0.0964 0,-0.12349 0,-0.0179 0.0056,-0.0424 0,-0.0596 -6.01e-4,-0.002 -0.0047,-0.002 -0.0055,-0.004 -0.0061,-0.0141 -0.01042,-0.0285 -0.01648,-0.0426 -0.003,-0.007 -0.02328,-0.0606 -0.02746,-0.0638 -0.0029,-0.002 -0.0081,-0.002 -0.01097,-0.004 -0.0012,-0.001 0.0012,-0.003 0,-0.004 -0.0093,-0.007 -0.04347,-0.0265 -0.05491,-0.0298 -0.0071,-0.002 -0.01521,-0.002 -0.02197,-0.004 -0.0082,-0.003 -0.01419,-0.009 -0.02196,-0.0128 -0.03161,-0.0153 -0.06255,-0.0298 -0.09335,-0.0468 -0.03806,-0.0211 -0.06756,-0.0413 -0.109816,-0.0553 -0.01073,-0.003 -0.04702,-0.007 -0.05491,-0.008 -0.02935,-0.004 -0.05953,-0.01 -0.08785,-0.017 -0.04753,-0.0123 -0.08955,-0.0345 -0.137272,-0.0468 -0.02434,-0.006 -0.04628,0.0137 -0.06589,0.0213 -0.0016,5.8e-4 -0.0042,-0.001 -0.0055,0 -0.0023,0.002 -0.0039,0.0102 -0.0055,0.0128 -0.01143,0.0177 4.01e-4,-0.005 -0.011,0.004 -0.0012,0.001 -0.0055,0.0107 -0.0055,0"
       id="path56" />
    <path
       style="fill:#793148;fill-opacity:0.679012;stroke:#1f0308;stroke-width:0.3;stroke-linejoin:round;stroke-dasharray:none;stroke-dashoffset:0;stroke-opacity:1"
       d="m 51.065017,150.56088 c 0.0145,0.005 0.02829,0.0133 0.04354,0.0145 0.03457,0.003 0.101579,-0.0194 0.137877,-0.007 0.01148,0.004 0.01781,0.0173 0.02902,0.0218 0.03343,0.0134 0.07355,0.0274 0.10885,0.0363"
       id="path57" />
  </g>
</svg>
